<?xml version="1.0" encoding="UTF-8"?>
<svg width="528px" height="278px" viewBox="0 0 528 278" version="1.1" xmlns="http://www.w3.org/2000/svg" xmlns:xlink="http://www.w3.org/1999/xlink">
    <title>about-us</title>
    <g id="Page-1" stroke="none" stroke-width="1" fill="none" fill-rule="evenodd">
        <g id="about-us" transform="translate(0.370239, 0.606508)">
            <path d="M168.089761,163.393492 C167.959761,155.663492 164.089761,107.993492 159.169761,75.7034923 C157.463094,64.3701589 155.463094,53.1134923 153.169761,41.9334923 C151.359761,32.9834923 150.309761,22.2834923 145.289761,14.4034923 C141.414248,8.27320962 134.405329,4.86168612 127.189761,5.59349227 C119.189761,6.20349227 112.399761,10.5934923 106.639761,15.8934923 C96.2197606,25.5834923 86.4997606,36.2434923 77.0097606,46.9734923 C77.0748222,42.3380746 76.5438049,37.7135184 75.4297606,33.2134923 C74.9197606,31.1534923 71.4297606,31.0134923 70.7797606,33.0334923 C70.4797606,33.9334923 70.1997606,34.8434923 69.9197606,35.7534923 C69.9897606,33.9534923 69.9897606,32.1434923 69.9197606,30.3234923 C69.8297606,27.3234923 65.5197606,27.4034923 64.9197606,30.1034923 L64.1097606,33.7834923 C63.9203374,33.1542038 63.4618361,32.6411811 62.857693,32.3825383 C62.2535498,32.1238956 61.5658598,32.1462166 60.9797606,32.4434923 C60.4401899,32.2625049 59.850267,32.3082642 59.3450603,32.5702931 C58.8398535,32.8323219 58.4626308,33.2881793 58.2997606,33.8334923 C51.9897606,50.9134923 38.2997606,63.1034923 26.2997606,76.1434923 C20.6297606,82.5234923 13.9097606,89.6034923 10.6297606,97.7534923 C7.79976061,104.883492 8.95976061,114.123492 16.6297606,117.513492 C17.1305832,117.756709 17.7026278,117.810005 18.2397606,117.663492 C16.2568997,120.433986 14.5804266,123.411402 13.2397606,126.543492 C10.0097606,134.353492 12.5497606,141.693492 19.1797606,146.633492 C25.9897606,151.713492 34.5797606,155.073492 42.3797606,158.303492 C43.7197606,158.863492 45.0597606,159.393492 46.3797606,159.923492 C44.1197606,174.093492 42.8097606,188.413492 41.8997606,202.673492 C41.1597606,214.333492 40.8264273,226.000159 40.8997606,237.673492 C40.3264273,246.473492 39.8730939,255.276826 39.5397606,264.083492 C39.5397606,264.083492 32.5397606,269.303492 29.8897606,271.083492 C27.2397606,272.863492 26.3897606,276.723492 29.8897606,276.723492 L72.6697606,276.723492 C73.4648057,276.783255 74.2389009,276.450819 74.743014,275.833131 C75.247127,275.215443 75.4176635,274.390426 75.1997606,273.623492 C75.1997606,273.563492 75.1997606,273.503492 75.1997606,273.433492 C74.8697606,243.643492 77.0097606,193.893492 78.6097606,184.143492 C79.3230939,179.770159 80.1497606,175.413492 81.0897606,171.073492 C85.5897606,172.300159 90.1064273,173.486826 94.6397606,174.633492 C92.6930939,203.753492 91.8964273,232.913492 92.2497606,262.113492 C88.8210048,265.024032 85.734493,268.315193 83.0497606,271.923492 L82.9497606,272.073492 C81.9552631,272.623539 81.4619018,273.77917 81.7525226,274.877858 C82.0431433,275.976547 83.0433666,276.737101 84.1797606,276.723492 L126.329761,276.723492 C126.628428,276.720892 126.925032,276.673705 127.209761,276.583492 C127.976339,276.840869 128.818592,276.73037 129.49529,276.29005 C130.171987,275.847369 130.608483,275.118976 130.679761,274.313492 C130.679761,273.693492 130.779761,273.083492 130.819761,272.463492 C130.861871,272.038839 130.778423,271.611165 130.579761,271.233492 C129.579761,242.343492 127.719761,212.983492 131.579761,184.233492 C137.430373,186.169451 143.40364,187.712879 149.459761,188.853492 C156.259761,189.933492 163.559761,188.273492 166.379761,181.283492 C168.059761,177.283492 168.229761,171.153492 168.089761,163.393492 Z" id="Path" fill="#F1EDEA" fill-rule="nonzero"></path>
            <path d="M129.199761,142.833492 C119.931231,152.615557 105.633274,155.754133 93.1197606,150.753492 C88.9197606,148.993492 84.9997606,146.203492 82.6897606,142.273492 C79.8497606,137.473492 79.6897606,131.563492 80.1697606,126.003492 C81.6020669,109.179736 87.777822,93.1075152 97.9797606,79.6534923 C101.319761,75.2734923 105.099761,71.1334923 107.419761,66.1434923 C108.089761,64.7034923 109.019761,62.9334923 110.609761,62.9934923 C112.609761,63.0834923 113.089761,65.8334923 112.739761,67.7934923 C112.09915,71.4190318 110.698459,74.867937 108.629761,77.9134923" id="Path" stroke="#28C9AA" stroke-width="4.23" stroke-linecap="round" stroke-linejoin="round"></path>
            <path d="M113.809761,63.5534923 C114.439761,62.2734923 116.389761,62.1834923 117.499761,63.0734923 C118.536735,64.0693527 119.149306,65.4270386 119.209761,66.8634923 C119.699988,70.9641639 118.585621,75.0955642 116.099761,78.3934923" id="Path" stroke="#28C9AA" stroke-width="4.23" stroke-linecap="round" stroke-linejoin="round"></path>
            <path d="M120.489761,65.7834923 C122.556649,66.1980326 124.175143,67.8086507 124.599761,69.8734923 C124.976813,71.9065069 124.849773,74.0009553 124.229761,75.9734923 C122.979602,80.9487199 120.907804,85.6803956 118.099761,89.9734923" id="Path" stroke="#28C9AA" stroke-width="4.23" stroke-linecap="round" stroke-linejoin="round"></path>
            <path d="M122.529761,83.5234923 C124.229761,83.0234923 126.019761,84.5234923 126.359761,86.2834923 C126.562727,88.0752498 126.044642,89.8741548 124.919761,91.2834923 C123.654747,93.120163 121.998355,94.6536063 120.069761,95.7734923 C119.094246,96.2452307 118.175094,96.8255709 117.329761,97.5034923 C116.406885,98.4698546 115.701132,99.6222439 115.259761,100.883492 C111.825441,109.018609 109.533694,117.589945 108.449761,126.353492 L112.099761,123.063492" id="Path" stroke="#28C9AA" stroke-width="4.23" stroke-linecap="round" stroke-linejoin="round"></path>
            <path d="M37.1797606,12.4834923 C36.3428244,12.4856106 35.5845335,11.9905606 35.2497606,11.2234923 L31.6297606,2.96349227 C31.3260848,2.27218334 31.4142857,1.47137844 31.8611389,0.862733041 C32.3079922,0.254087638 33.04561,-0.0699305436 33.796139,0.0127330152 C34.546668,0.0953965739 35.1960849,0.572183311 35.4997606,1.26349227 L39.1297606,9.52349227 C39.3542705,10.03664 39.3655379,10.6179976 39.1610799,11.1394592 C38.956622,11.6609208 38.5532179,12.0796914 38.0397606,12.3034923 C37.7706324,12.4284733 37.4764207,12.4900525 37.1797606,12.4834923 L37.1797606,12.4834923 Z" id="Path" fill="#F1EDEA" fill-rule="nonzero"></path>
            <path d="M23.2097606,22.6535061 C22.6717883,22.6535061 22.1537685,22.4497872 21.7597606,22.0834923 L15.1797606,15.8934923 C14.3292421,15.0954408 14.2867091,13.7590108 15.0847606,12.9084923 C15.8828121,12.0579738 17.2192421,12.0154408 18.0697606,12.8134923 L24.6297606,19.0034923 C25.262837,19.5964325 25.4685498,20.5163969 25.1483144,21.3225068 C24.8280789,22.1286166 24.0471441,22.6566251 23.1797606,22.6535061 L23.2097606,22.6535061 Z" id="Path" fill="#F1EDEA" fill-rule="nonzero"></path>
            <path d="M13.1197606,36.6234923 L12.7797606,36.6234923 L4.51976061,35.2834923 C3.41398545,35.0477134 2.68782279,33.9856586 2.86936691,32.8696962 C3.05091103,31.7537337 4.07626934,30.9766153 5.19976061,31.1034923 L13.4597606,32.3934923 C14.5702054,32.544607 15.3687899,33.5374487 15.278364,34.6544745 C15.1879382,35.7715002 14.240053,36.622961 13.1197606,36.5934923 L13.1197606,36.6234923 Z" id="Path" fill="#F1EDEA" fill-rule="nonzero"></path>
            <path d="M2.05976061,53.6934923 C0.969064892,53.6624542 0.0800608673,52.8085959 0.00507708056,51.7200382 C-0.0699067062,50.6314804 0.693622439,49.6637897 1.76976061,49.4834923 L9.22976061,48.3934923 C10.3485105,48.2996234 11.346467,49.0942101 11.5056094,50.2055545 C11.6647518,51.3168989 10.9298944,52.3596213 9.82976061,52.5834923 L2.36976061,53.6534923 C2.26803907,53.6772372 2.16417778,53.6906386 2.05976061,53.6934923 L2.05976061,53.6934923 Z" id="Path" fill="#F1EDEA" fill-rule="nonzero"></path>
            <path d="M94.2297606,66.9334923 C92.9062788,69.1099045 91.3322014,71.1236496 89.5397606,72.9334923 C88.7516841,73.8264611 87.7700533,74.527626 86.6697606,74.9834923 C85.5392231,75.4329471 84.2514698,75.2002206 83.3497606,74.3834923 C81.9097606,72.8434923 82.9997606,70.3834923 84.1397606,68.5934923 C85.7397606,66.1034923 88.9497606,58.5934923 92.3097606,58.1934923 C97.3397606,57.6334923 95.6797606,64.5534923 94.2297606,66.9334923 Z" id="Path" stroke="#28C9AA" stroke-width="4.23" stroke-linecap="round" stroke-linejoin="round"></path>
            <line x1="90.7997606" y1="45.3834923" x2="94.1297606" y2="47.0334923" id="Path" stroke="#28C9AA" stroke-width="4.23" stroke-linecap="round" stroke-linejoin="round"></line>
            <line x1="112.359761" y1="56.1334923" x2="108.669761" y2="54.9434923" id="Path" stroke="#28C9AA" stroke-width="4.23" stroke-linecap="round" stroke-linejoin="round"></line>
            <line x1="98.8797606" y1="38.5334923" x2="100.089761" y2="41.7234923" id="Path" stroke="#28C9AA" stroke-width="4.23" stroke-linecap="round" stroke-linejoin="round"></line>
            <line x1="115.109761" y1="47.1134923" x2="111.589761" y2="47.8434923" id="Path" stroke="#28C9AA" stroke-width="4.23" stroke-linecap="round" stroke-linejoin="round"></line>
            <path d="M19.0597606,115.283492 C36.9797606,92.7568256 55.8864273,71.0668256 75.7797606,50.2134923" id="Path" stroke="#28C9AA" stroke-width="4.23" stroke-linecap="round" stroke-linejoin="round"></path>
            <path d="M63.5097606,34.1934923 C63.4397606,36.0734923 62.7897606,39.4834923 62.7297606,41.3634923" id="Path" stroke="#28C9AA" stroke-width="4.23" stroke-linecap="round" stroke-linejoin="round"></path>
            <path d="M70.5397606,35.3934923 C70.3297606,37.0434923 69.6597606,41.6634923 69.4497606,43.3134923" id="Path" stroke="#28C9AA" stroke-width="4.23" stroke-linecap="round" stroke-linejoin="round"></path>
            <path d="M345.349761,163.293492 C345.219761,155.563492 341.349761,107.883492 336.439761,75.5934923 C334.719761,64.2934923 332.719761,53.0401589 330.439761,41.8334923 C328.629761,32.8834923 327.629761,22.1734923 322.629761,14.2934923 C318.74938,8.16865102 311.744049,4.75887377 304.529761,5.48349227 C296.529761,6.09349227 289.739761,10.4834923 283.979761,15.7934923 C273.559761,25.4834923 263.839761,36.1434923 254.349761,46.8734923 C254.415931,42.238019 253.884898,37.6133212 252.769761,33.1134923 C252.259761,31.0434923 248.769761,30.9134923 248.119761,32.9234923 C247.819761,33.8334923 247.549761,34.7434923 247.259761,35.6534923 C247.329761,33.8534923 247.339761,32.0434923 247.259761,30.2234923 C247.169761,27.2234923 242.869761,27.2934923 242.259761,30.0034923 L241.449761,33.6834923 C241.259576,33.0545744 240.801718,32.5415359 240.198398,32.2813182 C239.595078,32.0211005 238.907708,32.0401903 238.319761,32.3334923 C237.780133,32.1560349 237.191632,32.2047624 236.68854,32.4685563 C236.185447,32.7323502 235.810684,33.1887049 235.649761,33.7334923 C229.329761,50.8134923 215.649761,63.0034923 203.649761,76.0434923 C197.839761,82.3934923 191.159761,89.4634923 187.919761,97.6234923 C185.089761,104.753492 186.249761,113.993492 193.919761,117.383492 C194.42202,117.621519 194.992174,117.674639 195.529761,117.533492 C193.549047,120.3018 191.872686,123.275664 190.529761,126.403492 C187.299761,134.223492 189.839761,141.563492 196.469761,146.503492 C203.279761,151.573492 211.869761,154.943492 219.669761,158.173492 C221.009761,158.723492 222.359761,159.263492 223.669761,159.793492 C221.409761,173.963492 220.099761,188.283492 219.189761,202.543492 C218.449761,214.203492 218.116427,225.870159 218.189761,237.543492 C217.616427,246.330159 217.163094,255.130159 216.829761,263.943492 C216.829761,263.943492 209.829761,269.163492 207.179761,270.993492 C204.529761,272.823492 203.679761,276.633492 207.179761,276.633492 L249.959761,276.633492 C250.753373,276.688503 251.52429,276.35477 252.027283,275.738454 C252.530277,275.122139 252.70272,274.299975 252.489761,273.533492 C252.489761,273.463492 252.489761,273.413492 252.489761,273.343492 C252.159761,243.543492 254.299761,193.803492 255.899761,184.053492 C256.613094,179.680159 257.439761,175.320159 258.379761,170.973492 C262.879761,172.213492 267.379761,173.393492 271.929761,174.543492 C269.976427,203.663492 269.179761,232.823492 269.539761,262.023492 C266.111218,264.930535 263.024687,268.218361 260.339761,271.823492 C260.339761,271.883492 260.279761,271.933492 260.249761,271.983492 C259.238723,272.521236 258.729884,273.683393 259.020496,274.791052 C259.311107,275.898712 260.324952,276.661368 261.469761,276.633492 L303.629761,276.633492 C303.932633,276.632485 304.23329,276.581813 304.519761,276.483492 C305.283609,276.741035 306.123379,276.634058 306.798264,276.193237 C307.473149,275.752416 307.908604,275.026443 307.979761,274.223492 L308.129761,272.363492 C308.163974,271.941336 308.077259,271.518166 307.879761,271.143492 C306.879761,242.253492 305.019761,212.893492 308.879761,184.143492 C314.729356,186.082904 320.702857,187.626392 326.759761,188.763492 C333.569761,189.853492 340.859761,188.193492 343.679761,181.203492 C345.319761,177.153492 345.489761,171.023492 345.349761,163.293492 Z" id="Path" fill="#F1EDEA" fill-rule="nonzero"></path>
            <path d="M306.459761,142.703492 C297.194436,152.483839 282.900225,155.622462 270.389761,150.623492 C266.179761,148.853492 262.269761,146.073492 259.949761,142.143492 C257.109761,137.343492 256.949761,131.433492 257.429761,125.873492 C258.866378,109.050727 265.041688,92.9796661 275.239761,79.5234923 C278.579761,75.1334923 282.359761,71.0034923 284.679761,66.0134923 C285.349761,64.5634923 286.279761,62.7934923 287.869761,62.8634923 C289.869761,62.9534923 290.349761,65.6934923 289.999761,67.6534923 C289.367156,71.2811188 287.973222,74.7335758 285.909761,77.7834923" id="Path" stroke="#28C9AA" stroke-width="4.23" stroke-linecap="round" stroke-linejoin="round"></path>
            <path d="M291.069761,63.3934923 C291.709761,62.1234923 293.649761,62.0334923 294.759761,62.9234923 C295.795311,63.9213434 296.410579,65.277078 296.479761,66.7134923 C296.967148,70.8154815 295.849161,74.9470174 293.359761,78.2434923" id="Path" stroke="#28C9AA" stroke-width="4.23" stroke-linecap="round" stroke-linejoin="round"></path>
            <path d="M297.749761,65.6534923 C299.816649,66.0680326 301.435143,67.6786507 301.859761,69.7434923 C302.236404,71.776532 302.10937,73.870881 301.489761,75.8434923 C300.239602,80.8187199 298.167804,85.5503956 295.359761,89.8434923" id="Path" stroke="#28C9AA" stroke-width="4.23" stroke-linecap="round" stroke-linejoin="round"></path>
            <path d="M299.789761,83.3934923 C301.489761,82.8934923 303.279761,84.3934923 303.619761,86.1534923 C303.822727,87.9452498 303.304642,89.7441548 302.179761,91.1534923 C300.914747,92.990163 299.258355,94.5236063 297.329761,95.6434923 C296.356592,96.1154713 295.437823,96.692217 294.589761,97.3634923 C293.668839,98.3351938 292.963456,99.4903869 292.519761,100.753492 C289.085441,108.888609 286.793694,117.459945 285.709761,126.223492 L289.359761,122.933492" id="Path" stroke="#28C9AA" stroke-width="4.23" stroke-linecap="round" stroke-linejoin="round"></path>
            <path d="M271.489761,66.8034923 C270.16373,68.9781414 268.589875,70.9916022 266.799761,72.8034923 C266.005703,73.6775417 265.024681,74.3611805 263.929761,74.8034923 C262.797599,75.2527773 261.508271,75.0158827 260.609761,74.1934923 C259.169761,72.6634923 260.259761,70.1934923 261.399761,68.4134923 C262.999761,65.9234923 266.209761,58.4134923 269.569761,58.0134923 C274.629761,57.5034923 272.949761,64.3934923 271.489761,66.8034923 Z" id="Path" stroke="#28C9AA" stroke-width="4.23" stroke-linecap="round" stroke-linejoin="round"></path>
            <line x1="268.059761" y1="45.2534923" x2="271.389761" y2="46.9034923" id="Path" stroke="#28C9AA" stroke-width="4.23" stroke-linecap="round" stroke-linejoin="round"></line>
            <line x1="289.619761" y1="56.0034923" x2="285.929761" y2="54.8134923" id="Path" stroke="#28C9AA" stroke-width="4.23" stroke-linecap="round" stroke-linejoin="round"></line>
            <line x1="276.139761" y1="38.4034923" x2="277.349761" y2="41.5934923" id="Path" stroke="#28C9AA" stroke-width="4.23" stroke-linecap="round" stroke-linejoin="round"></line>
            <line x1="292.379761" y1="46.9834923" x2="288.849761" y2="47.7134923" id="Path" stroke="#28C9AA" stroke-width="4.23" stroke-linecap="round" stroke-linejoin="round"></line>
            <path d="M196.319761,115.143492 C214.239761,92.6234923 233.146427,70.9368256 253.039761,50.0834923" id="Path" stroke="#28C9AA" stroke-width="4.23" stroke-linecap="round" stroke-linejoin="round"></path>
            <path d="M240.769761,34.0634923 C240.709761,35.9434923 240.049761,39.3534923 239.989761,41.2334923" id="Path" stroke="#28C9AA" stroke-width="4.23" stroke-linecap="round" stroke-linejoin="round"></path>
            <path d="M247.799761,35.2734923 C247.589761,36.9134923 246.929761,41.5434923 246.709761,43.1934923" id="Path" stroke="#28C9AA" stroke-width="4.23" stroke-linecap="round" stroke-linejoin="round"></path>
            <path d="M527.269761,163.293492 C527.129761,155.563492 523.269761,107.883492 518.349761,75.5934923 C516.636427,64.2934923 514.636427,53.0401589 512.349761,41.8334923 C510.539761,32.8334923 509.489761,22.1734923 504.459761,14.2934923 C500.582679,8.17028203 493.581046,4.76042102 486.369761,5.48349227 C478.369761,6.09349227 471.579761,10.4834923 465.819761,15.7934923 C455.399761,25.4834923 445.679761,36.1434923 436.189761,46.8734923 C436.262472,42.2388823 435.738162,37.6141971 434.629761,33.1134923 C434.119761,31.0434923 430.629761,30.9134923 429.979761,32.9234923 C429.679761,33.8334923 429.399761,34.7434923 429.109761,35.6534923 C429.183094,33.8534923 429.183094,32.0434923 429.109761,30.2234923 C429.019761,27.2234923 424.709761,27.2934923 424.109761,30.0034923 C423.839761,31.2334923 423.569761,32.4534923 423.289761,33.6834923 C423.102022,33.0551853 422.646108,32.542024 422.044275,32.2816154 C421.442442,32.0212069 420.75627,32.0401966 420.169761,32.3334923 C419.628765,32.1586771 419.040225,32.2084836 418.536301,32.4717272 C418.032378,32.7349708 417.655306,33.1895889 417.489761,33.7334923 C411.169761,50.8134923 397.489761,63.0034923 385.489761,76.0434923 C379.679761,82.3934923 373.009761,89.4634923 369.769761,97.6234923 C366.939761,104.753492 368.089761,113.993492 375.769761,117.383492 C376.275602,117.621405 376.848835,117.674482 377.389761,117.533492 C375.405392,120.29947 373.7288,123.273743 372.389761,126.403492 C369.159761,134.223492 371.699761,141.563492 378.329761,146.503492 C385.139761,151.573492 393.729761,154.943492 401.529761,158.173492 C402.869761,158.723492 404.209761,159.263492 405.529761,159.793492 C403.269761,173.963492 401.959761,188.283492 401.049761,202.543492 C400.309761,214.203492 399.976427,225.870159 400.049761,237.543492 C399.476427,246.330159 399.023094,255.130159 398.689761,263.943492 C398.689761,263.943492 391.689761,269.163492 389.039761,270.993492 C386.389761,272.823492 385.539761,276.633492 389.039761,276.633492 L431.809761,276.633492 C432.603655,276.687262 433.374526,276.353711 433.878834,275.738217 C434.383142,275.122723 434.558594,274.301312 434.349761,273.533492 C434.349761,273.463492 434.349761,273.413492 434.349761,273.343492 C434.019761,243.543492 436.169761,193.803492 437.759761,184.053492 C438.479761,179.680159 439.306427,175.320159 440.239761,170.973492 C444.749761,172.213492 449.239761,173.393492 453.799761,174.543492 C451.839761,203.663492 451.043094,232.823492 451.409761,262.023492 C447.975548,264.927683 444.885396,268.215792 442.199761,271.823492 C442.175769,271.879989 442.145584,271.933651 442.109761,271.983492 C441.098723,272.521236 440.589884,273.683393 440.880496,274.791052 C441.171107,275.898712 442.184952,276.661368 443.329761,276.633492 L485.439761,276.633492 C485.74279,276.63436 486.043756,276.583635 486.329761,276.483492 C487.094782,276.740644 487.935405,276.633728 488.611699,276.19326 C489.287993,275.752793 489.725652,275.027167 489.799761,274.223492 C489.799761,273.603492 489.889761,272.983492 489.939761,272.363492 C489.982268,271.942035 489.898742,271.517443 489.699761,271.143492 C488.699761,242.253492 486.829761,212.893492 490.699761,184.143492 C496.549004,186.084097 502.522586,187.627606 508.579761,188.763492 C515.379761,189.853492 522.679761,188.193492 525.489761,181.203492 C527.239761,177.153492 527.409761,171.023492 527.269761,163.293492 Z" id="Path" fill="#F1EDEA" fill-rule="nonzero"></path>
            <path d="M488.379761,142.703492 C479.111231,152.485557 464.813274,155.624133 452.299761,150.623492 C448.099761,148.853492 444.179761,146.073492 441.859761,142.143492 C439.029761,137.343492 438.859761,131.433492 439.349761,125.873492 C440.782067,109.049736 446.957822,92.9775152 457.159761,79.5234923 C460.499761,75.1334923 464.279761,71.0034923 466.599761,66.0134923 C467.269761,64.5634923 468.199761,62.7934923 469.789761,62.8634923 C471.789761,62.9534923 472.259761,65.6934923 471.919761,67.6534923 C471.282792,71.2798712 469.889215,74.7314441 467.829761,77.7834923" id="Path" stroke="#28C9AA" stroke-width="4.23" stroke-linecap="round" stroke-linejoin="round"></path>
            <path d="M472.989761,63.3934923 C473.619761,62.1234923 475.569761,62.0334923 476.679761,62.9234923 C477.716735,63.9193527 478.329306,65.2770386 478.389761,66.7134923 C478.877148,70.8154815 477.759161,74.9470174 475.269761,78.2434923" id="Path" stroke="#28C9AA" stroke-width="4.23" stroke-linecap="round" stroke-linejoin="round"></path>
            <path d="M479.629761,65.6534923 C481.700519,66.0644476 483.323683,67.6757922 483.749761,69.7434923 C484.126404,71.776532 483.99937,73.870881 483.379761,75.8434923 C482.130435,80.8206946 480.054964,85.553039 477.239761,89.8434923" id="Path" stroke="#28C9AA" stroke-width="4.23" stroke-linecap="round" stroke-linejoin="round"></path>
            <path d="M481.709761,83.3934923 C483.409761,82.8934923 485.199761,84.3934923 485.529761,86.1534923 C485.731083,87.9435207 485.217116,89.7406057 484.099761,91.1534923 C482.834747,92.990163 481.178355,94.5236063 479.249761,95.6434923 C478.27529,96.1131169 477.356269,96.6900202 476.509761,97.3634923 C475.588839,98.3351938 474.883456,99.4903869 474.439761,100.753492 C471.008104,108.879096 468.716405,117.440155 467.629761,126.193492 L471.279761,122.903492" id="Path" stroke="#28C9AA" stroke-width="4.23" stroke-linecap="round" stroke-linejoin="round"></path>
            <path d="M453.399761,66.8034923 C452.077226,68.9778746 450.506712,70.9913548 448.719761,72.8034923 C447.921921,73.6777338 446.937618,74.3612775 445.839761,74.8034923 C444.71092,75.2535405 443.424012,75.0163761 442.529761,74.1934923 C441.079761,72.6634923 442.179761,70.1934923 443.319761,68.4134923 C444.909761,65.9234923 448.129761,58.4134923 451.479761,58.0134923 C456.519761,57.5034923 454.859761,64.3934923 453.399761,66.8034923 Z" id="Path" stroke="#28C9AA" stroke-width="4.23" stroke-linecap="round" stroke-linejoin="round"></path>
            <line x1="449.979761" y1="45.2534923" x2="453.309761" y2="46.9034923" id="Path" stroke="#28C9AA" stroke-width="4.23" stroke-linecap="round" stroke-linejoin="round"></line>
            <line x1="471.539761" y1="56.0034923" x2="467.839761" y2="54.8134923" id="Path" stroke="#28C9AA" stroke-width="4.23" stroke-linecap="round" stroke-linejoin="round"></line>
            <line x1="458.059761" y1="38.4034923" x2="459.269761" y2="41.5934923" id="Path" stroke="#28C9AA" stroke-width="4.23" stroke-linecap="round" stroke-linejoin="round"></line>
            <line x1="474.289761" y1="46.9834923" x2="470.759761" y2="47.7134923" id="Path" stroke="#28C9AA" stroke-width="4.23" stroke-linecap="round" stroke-linejoin="round"></line>
            <path d="M378.239761,115.143492 C396.159761,92.6234923 415.066427,70.9368256 434.959761,50.0834923" id="Path" stroke="#28C9AA" stroke-width="4.23" stroke-linecap="round" stroke-linejoin="round"></path>
            <path d="M422.689761,34.0634923 C422.619761,35.9434923 421.969761,39.3534923 421.899761,41.2334923" id="Path" stroke="#28C9AA" stroke-width="4.23" stroke-linecap="round" stroke-linejoin="round"></path>
            <path d="M429.719761,35.2734923 C429.499761,36.9134923 428.839761,41.5434923 428.629761,43.1934923" id="Path" stroke="#28C9AA" stroke-width="4.23" stroke-linecap="round" stroke-linejoin="round"></path>
        </g>
    </g>
</svg>