<svg width="544" height="289" viewBox="0 0 544 289" fill="none" xmlns="http://www.w3.org/2000/svg">
<path d="M543.93 169.04C543.21 150.974 541.313 132.995 539.551 115.016C538.191 101.157 536.349 87.3293 534.212 73.5577C532.059 59.5308 529.409 45.6156 526.775 31.6365C525.646 25.6409 524.486 19.6613 522.148 13.9291C518.081 3.98968 509.692 -0.944115 499.045 0.149622C492.545 0.820234 487.037 3.58252 482.114 7.59023C472.916 15.0787 464.91 23.8127 456.833 32.4508C453.783 35.7081 450.829 39.0611 447.395 42.8293C446.691 38.3586 446.09 34.6223 445.53 30.8541C445.29 29.2574 444.609 28.0279 443 27.6128C441.895 27.3334 440.831 27.517 440.663 29.0019C443.584 33.0655 440.599 37.0892 440.502 41.1288C440.502 42.0709 439.262 42.518 438.293 42.3104C437.832 42.2585 437.394 42.0825 437.026 41.8012C436.658 41.5199 436.374 41.144 436.204 40.7137C435.499 38.7498 437.957 30.5507 439.694 29.3053C438.509 27.7086 440.454 24.3795 436.78 24.0921C433.674 23.8526 433.706 26.4073 432.881 28.2275C434.651 30.5028 434.723 37.2409 433.082 39.3405C432.833 39.727 432.459 40.0169 432.022 40.1621C431.585 40.3074 431.112 40.2992 430.68 40.1389C429.263 39.6998 429.023 38.4863 429.079 37.2728C429.255 34.5105 429.559 31.7482 429.807 28.986C427.118 27.4851 426.541 29.7045 425.917 31.381C421.746 42.3902 414.357 51.188 406.648 59.8102C398.187 69.2866 388.676 77.8529 381.24 88.2154C376.292 95.0972 371.953 102.386 375.028 111.368C376.236 114.92 377.917 118.553 382.641 118.752C382.452 117.908 382.472 117.031 382.699 116.196C382.926 115.362 383.354 114.595 383.945 113.962C402.48 90.8579 421.96 68.5734 442.384 47.1085C443.534 45.8318 445.048 44.9351 446.723 44.5378C447.707 47.0206 447.371 48.9447 445.426 50.9645C425.357 71.8493 406.4 93.724 388.212 116.245C386.827 117.962 385.53 119.622 382.969 118.88C382.777 121.099 381.368 122.784 380.351 124.628C374.195 135.653 376.124 144.435 386.475 151.524C393.88 156.602 402.181 159.907 410.491 163.092C412.764 163.963 413.789 164.929 413.317 167.747C410.779 182.963 409.554 198.324 408.81 213.716C407.865 233.092 407.937 252.516 406.592 271.875C406.448 274.055 405.792 275.612 403.959 276.865C401.093 278.797 398.355 280.913 395.633 283.044C394.328 284.074 393.488 285.487 393.96 287.236C394.432 288.984 396.041 289 397.53 289C411.94 289 426.349 289 440.759 289C443.617 289 444.833 287.723 444.809 284.865C444.641 263.309 445.25 241.802 446.41 220.302C447.003 209.181 446.947 197.948 449.076 186.971C451.157 176.201 451.141 176.297 461.836 179.115C464.422 179.802 465.215 180.936 465.039 183.522C464.422 191.865 463.742 200.224 463.574 208.582C463.173 227.455 462.221 246.328 462.701 265.209C462.829 270.215 462.437 274.558 457.818 277.727C455.921 279.029 454.68 281.304 453.135 283.132C452.102 284.362 450.933 285.575 451.878 287.371C452.823 289.168 454.456 288.968 456.081 288.968C470.346 288.968 484.611 288.968 498.885 288.896C503.392 288.896 504.24 287.922 504.056 283.451C503.768 276.266 503.448 269.081 503.176 261.944C502.295 239.223 501.767 216.51 504.609 193.861C504.945 191.138 505.633 190.667 508.283 191.418C514.775 193.342 521.251 195.569 528.136 195.569C537.198 195.569 542.145 191.011 543.346 182.093C543.924 177.768 544.119 173.4 543.93 169.04V169.04ZM481.217 45.0248C481.609 41.999 484.539 42.486 486.533 41.9432C488.134 41.5041 489.583 42.4222 489.399 44.2504C489.07 47.4438 485.996 46.4458 484.331 47.3081C482.434 47.4518 480.985 46.845 481.217 45.0248ZM480.657 50.2699C482.85 50.7569 485.668 50.7888 486.357 53.615C486.677 54.9083 485.844 56.1617 483.811 56.1458C481.938 55.1957 478.776 55.6348 478.127 52.5372C477.807 51.0603 479.344 49.9825 480.657 50.2699V50.2699ZM469.642 33.0416C472.94 33.297 472.788 36.235 473.292 38.3985C473.38 38.6948 473.389 39.0087 473.32 39.3098C473.25 39.6108 473.103 39.8887 472.893 40.1162C472.683 40.3438 472.418 40.5133 472.123 40.6082C471.829 40.7031 471.514 40.7202 471.211 40.6578C468.113 40.3385 468.521 37.5123 467.768 35.6681C467.792 34.2231 468.033 32.9218 469.642 33.0416V33.0416ZM461.636 40.2267C463.373 41.2486 466.552 40.8494 466.936 44.1147C467.104 45.5437 466.135 46.9727 464.582 46.4379C462.357 45.6954 459.483 45.3202 459.035 42.3184C458.891 41.1528 459.787 40.1229 461.644 40.2427L461.636 40.2267ZM450.813 68.4483C452.999 64.249 455.016 59.882 458.202 56.3054C460.171 54.094 462.685 52.9763 465.711 54.2537C468.553 55.4592 468.705 58.0139 468.841 60.6964C467.872 67.0113 464.038 71.6257 459.051 75.2902C458.018 76.0653 456.749 76.4609 455.458 76.4099C454.167 76.359 452.934 75.8647 451.966 75.0107C451.024 74.2314 450.391 73.1432 450.18 71.9409C449.968 70.7386 450.193 69.5006 450.813 68.4483V68.4483ZM503.007 148.842C490.719 160.522 470.186 163.899 455.592 152.419C449.989 147.996 447.411 141.944 447.419 135.047C447.467 112.621 454.928 92.7341 468.833 75.1704C472.027 71.3459 474.845 67.2233 477.247 62.8599C479.6 58.3412 488.27 56.8323 491.984 60.361C493.393 61.7023 495.186 62.1414 496.643 63.2511C499.845 65.6461 500.894 70.8513 499.237 75.7133C498.308 78.4277 497.636 80.7349 500.302 83.1539C502.495 85.1258 501.903 88.0637 500.798 90.5945C499.637 93.4521 497.518 95.8195 494.802 97.2926C490.167 99.5919 488.878 103.823 487.373 107.991C486.116 111.471 485.26 115.096 484.291 118.672C483.947 119.942 483.347 121.467 484.339 122.489C485.54 123.726 486.741 124.828 485.612 126.528C484.483 128.229 482.986 130.177 480.977 130.704C477.775 131.558 477.471 129.107 477.855 126.816C479.03 119.49 480.833 112.279 483.243 105.26C485.092 99.9831 487.629 95.6161 492.849 92.8458C495.25 91.5765 497.764 89.4529 496.187 85.1897C494.626 87.5049 493.433 89.3491 492.184 91.1294C491.384 92.287 490.279 92.4307 489.054 91.6403C487.95 90.9218 487.838 90.0436 488.374 88.9259C490.463 84.4951 493.401 80.4874 494.546 75.5776C495.382 72.7955 495.323 69.8222 494.378 67.0752C493.665 71.6098 492.977 74.9788 490.936 77.8608C490.055 79.1063 489.206 80.5593 487.509 79.6651C485.812 78.771 485.908 77.0944 486.901 75.5456C488.102 73.8237 488.843 71.8245 489.053 69.7373C489.263 67.6502 488.936 65.544 488.102 63.6183C486.733 67.2668 486.276 71.1866 484.355 74.6036C484.099 75.0586 484.139 75.7452 483.803 76.0805C482.538 77.3499 482.074 80.3517 479.416 78.9147C477.014 77.6133 478.712 75.6574 479.416 74.0607C480.737 71.0908 482.826 68.3605 482.21 64.4805C473.636 77.9167 462.741 89.4928 457.618 104.669C454.496 113.914 452.174 123.279 452.118 133.067C452.054 143.541 457.538 150.734 467.584 153.456C479.752 156.754 490.487 153.888 499.717 145.473C501.214 144.1 502.535 143.23 504.072 144.874C505.609 146.519 504.184 147.748 503.007 148.866V148.842Z" fill="#F1EDEA"/>
<path d="M359.93 169.04C359.21 150.974 357.313 132.995 355.551 115.016C354.191 101.157 352.349 87.3293 350.212 73.5577C348.059 59.5308 345.409 45.6156 342.775 31.6365C341.646 25.6409 340.486 19.6613 338.148 13.9291C334.081 3.98968 325.692 -0.944115 315.045 0.149622C308.545 0.820234 303.037 3.58252 298.114 7.59023C288.916 15.0787 280.91 23.8127 272.833 32.4508C269.783 35.7081 266.829 39.0611 263.395 42.8293C262.691 38.3586 262.09 34.6223 261.53 30.8541C261.29 29.2574 260.609 28.0279 259 27.6128C257.895 27.3334 256.831 27.517 256.663 29.0019C259.584 33.0655 256.599 37.0892 256.502 41.1288C256.502 42.0709 255.262 42.518 254.293 42.3104C253.832 42.2585 253.394 42.0825 253.026 41.8012C252.658 41.5199 252.374 41.144 252.204 40.7137C251.499 38.7498 253.957 30.5507 255.694 29.3053C254.509 27.7086 256.454 24.3795 252.78 24.0921C249.674 23.8526 249.706 26.4073 248.881 28.2275C250.651 30.5028 250.723 37.2409 249.082 39.3405C248.833 39.727 248.459 40.0169 248.022 40.1621C247.585 40.3074 247.112 40.2992 246.68 40.1389C245.263 39.6998 245.023 38.4863 245.079 37.2728C245.255 34.5105 245.559 31.7482 245.807 28.986C243.118 27.4851 242.541 29.7045 241.917 31.381C237.746 42.3902 230.357 51.188 222.648 59.8102C214.187 69.2866 204.676 77.8529 197.24 88.2154C192.292 95.0972 187.953 102.386 191.028 111.368C192.236 114.92 193.917 118.553 198.641 118.752C198.452 117.908 198.472 117.031 198.699 116.196C198.926 115.362 199.354 114.595 199.945 113.962C218.48 90.8579 237.96 68.5734 258.384 47.1085C259.534 45.8318 261.048 44.9351 262.723 44.5378C263.707 47.0206 263.371 48.9447 261.426 50.9645C241.357 71.8493 222.4 93.724 204.212 116.245C202.827 117.962 201.53 119.622 198.969 118.88C198.777 121.099 197.368 122.784 196.351 124.628C190.195 135.653 192.124 144.435 202.475 151.524C209.88 156.602 218.181 159.907 226.491 163.092C228.764 163.963 229.789 164.929 229.317 167.747C226.779 182.963 225.554 198.324 224.81 213.716C223.865 233.092 223.937 252.516 222.592 271.875C222.448 274.055 221.792 275.612 219.959 276.865C217.093 278.797 214.355 280.913 211.633 283.044C210.328 284.074 209.488 285.487 209.96 287.236C210.432 288.984 212.041 289 213.53 289C227.94 289 242.349 289 256.759 289C259.617 289 260.833 287.723 260.809 284.865C260.641 263.309 261.25 241.802 262.41 220.302C263.003 209.181 262.947 197.948 265.076 186.971C267.157 176.201 267.141 176.297 277.836 179.115C280.422 179.802 281.215 180.936 281.039 183.522C280.422 191.865 279.742 200.224 279.574 208.582C279.173 227.455 278.221 246.328 278.701 265.209C278.829 270.215 278.437 274.558 273.818 277.727C271.921 279.029 270.68 281.304 269.135 283.132C268.102 284.362 266.933 285.575 267.878 287.371C268.823 289.168 270.456 288.968 272.081 288.968C286.346 288.968 300.611 288.968 314.885 288.896C319.392 288.896 320.24 287.922 320.056 283.451C319.768 276.266 319.448 269.081 319.176 261.944C318.295 239.223 317.767 216.51 320.609 193.861C320.945 191.138 321.633 190.667 324.283 191.418C330.775 193.342 337.251 195.569 344.136 195.569C353.198 195.569 358.145 191.011 359.346 182.093C359.924 177.768 360.119 173.4 359.93 169.04V169.04ZM297.217 45.0248C297.609 41.999 300.539 42.486 302.533 41.9432C304.134 41.5041 305.583 42.4222 305.399 44.2504C305.07 47.4438 301.996 46.4458 300.331 47.3081C298.434 47.4518 296.985 46.845 297.217 45.0248ZM296.657 50.2699C298.85 50.7569 301.668 50.7888 302.357 53.615C302.677 54.9083 301.844 56.1617 299.811 56.1458C297.938 55.1957 294.776 55.6348 294.127 52.5372C293.807 51.0603 295.344 49.9825 296.657 50.2699V50.2699ZM285.642 33.0416C288.94 33.297 288.788 36.235 289.292 38.3985C289.38 38.6948 289.389 39.0087 289.32 39.3098C289.25 39.6108 289.103 39.8887 288.893 40.1162C288.683 40.3438 288.418 40.5133 288.123 40.6082C287.829 40.7031 287.514 40.7202 287.211 40.6578C284.113 40.3385 284.521 37.5123 283.768 35.6681C283.792 34.2231 284.033 32.9218 285.642 33.0416V33.0416ZM277.636 40.2267C279.373 41.2486 282.552 40.8494 282.936 44.1147C283.104 45.5437 282.135 46.9727 280.582 46.4379C278.357 45.6954 275.483 45.3202 275.035 42.3184C274.891 41.1528 275.787 40.1229 277.644 40.2427L277.636 40.2267ZM266.813 68.4483C268.999 64.249 271.016 59.882 274.202 56.3054C276.171 54.094 278.685 52.9763 281.711 54.2537C284.553 55.4592 284.705 58.0139 284.841 60.6964C283.872 67.0113 280.038 71.6257 275.051 75.2902C274.018 76.0653 272.749 76.4609 271.458 76.4099C270.167 76.359 268.934 75.8647 267.966 75.0107C267.024 74.2314 266.391 73.1432 266.18 71.9409C265.968 70.7386 266.193 69.5006 266.813 68.4483V68.4483ZM319.007 148.842C306.719 160.522 286.186 163.899 271.592 152.419C265.989 147.996 263.411 141.944 263.419 135.047C263.467 112.621 270.928 92.7341 284.833 75.1704C288.027 71.3459 290.845 67.2233 293.247 62.8599C295.6 58.3412 304.27 56.8323 307.984 60.361C309.393 61.7023 311.186 62.1414 312.643 63.2511C315.845 65.6461 316.894 70.8513 315.237 75.7133C314.308 78.4277 313.636 80.7349 316.302 83.1539C318.495 85.1258 317.903 88.0637 316.798 90.5945C315.637 93.4521 313.518 95.8195 310.802 97.2926C306.167 99.5919 304.878 103.823 303.373 107.991C302.116 111.471 301.26 115.096 300.291 118.672C299.947 119.942 299.347 121.467 300.339 122.489C301.54 123.726 302.741 124.828 301.612 126.528C300.483 128.229 298.986 130.177 296.977 130.704C293.775 131.558 293.471 129.107 293.855 126.816C295.03 119.49 296.833 112.279 299.243 105.26C301.092 99.9831 303.629 95.6161 308.849 92.8458C311.25 91.5765 313.764 89.4529 312.187 85.1897C310.626 87.5049 309.433 89.3491 308.184 91.1294C307.384 92.287 306.279 92.4307 305.054 91.6403C303.95 90.9218 303.838 90.0436 304.374 88.9259C306.463 84.4951 309.401 80.4874 310.546 75.5776C311.382 72.7955 311.323 69.8222 310.378 67.0752C309.665 71.6098 308.977 74.9788 306.936 77.8608C306.055 79.1063 305.206 80.5593 303.509 79.6651C301.812 78.771 301.908 77.0944 302.901 75.5456C304.102 73.8237 304.843 71.8245 305.053 69.7373C305.263 67.6502 304.936 65.544 304.102 63.6183C302.733 67.2668 302.276 71.1866 300.355 74.6036C300.099 75.0586 300.139 75.7452 299.803 76.0805C298.538 77.3499 298.074 80.3517 295.416 78.9147C293.014 77.6133 294.712 75.6574 295.416 74.0607C296.737 71.0908 298.826 68.3605 298.21 64.4805C289.636 77.9167 278.741 89.4928 273.618 104.669C270.496 113.914 268.174 123.279 268.118 133.067C268.054 143.541 273.538 150.734 283.584 153.456C295.752 156.754 306.487 153.888 315.717 145.473C317.214 144.1 318.535 143.23 320.072 144.874C321.609 146.519 320.184 147.748 319.007 148.866V148.842Z" fill="#F1EDEA"/>
<path d="M169.93 169.04C169.21 150.974 167.313 132.995 165.551 115.016C164.191 101.157 162.349 87.3293 160.212 73.5577C158.059 59.5308 155.409 45.6156 152.775 31.6365C151.646 25.6409 150.486 19.6613 148.148 13.9291C144.081 3.98968 135.692 -0.944115 125.045 0.149622C118.545 0.820234 113.037 3.58252 108.114 7.59023C98.9157 15.0787 90.9105 23.8127 82.8332 32.4508C79.7832 35.7081 76.8292 39.0611 73.395 42.8293C72.6905 38.3586 72.0901 34.6223 71.5298 30.8541C71.2896 29.2574 70.6092 28.0279 69.0001 27.6128C67.8954 27.3334 66.8307 27.517 66.6626 29.0019C69.5845 33.0655 66.5985 37.0892 66.5025 41.1288C66.5025 42.0709 65.2617 42.518 64.293 42.3104C63.8322 42.2585 63.3942 42.0825 63.0262 41.8012C62.6581 41.5199 62.3737 41.144 62.2036 40.7137C61.4992 38.7498 63.9568 30.5507 65.6939 29.3053C64.5092 27.7086 66.4544 24.3795 62.78 24.0921C59.674 23.8526 59.706 26.4073 58.8815 28.2275C60.6506 30.5028 60.7227 37.2409 59.0816 39.3405C58.8328 39.727 58.4589 40.0169 58.022 40.1621C57.5851 40.3074 57.1116 40.2992 56.68 40.1389C55.2631 39.6998 55.0229 38.4863 55.079 37.2728C55.2551 34.5105 55.5593 31.7482 55.8074 28.986C53.1177 27.4851 52.5413 29.7045 51.9169 31.381C47.7462 42.3902 40.3573 51.188 32.6483 59.8102C24.1867 69.2866 14.6765 77.8529 7.2396 88.2154C2.29235 95.0972 -2.0465 102.386 1.02751 111.368C2.23631 114.92 3.91742 118.553 8.64051 118.752C8.45161 117.908 8.4717 117.031 8.69905 116.196C8.9264 115.362 9.35418 114.595 9.94537 113.962C28.4802 90.8579 47.9596 68.5734 68.3837 47.1085C69.5344 45.8318 71.0479 44.9351 72.7225 44.5378C73.7072 47.0206 73.371 48.9447 71.4257 50.9645C51.3565 71.8493 32.4001 93.724 14.2122 116.245C12.8273 117.962 11.5304 119.622 8.96873 118.88C8.77661 121.099 7.36769 122.784 6.35102 124.628C0.194986 135.653 2.12425 144.435 12.475 151.524C19.8799 156.602 28.1813 159.907 36.4908 163.092C38.7643 163.963 39.789 164.929 39.3166 167.747C36.779 182.963 35.5542 198.324 34.8097 213.716C33.8651 233.092 33.9371 252.516 32.5922 271.875C32.4481 274.055 31.7917 275.612 29.9585 276.865C27.0926 278.797 24.3548 280.913 21.633 283.044C20.3282 284.074 19.4876 285.487 19.96 287.236C20.4323 288.984 22.0413 289 23.5303 289C37.9397 289 52.3492 289 66.7586 289C69.6165 289 70.8333 287.723 70.8093 284.865C70.6412 263.309 71.2496 241.802 72.4103 220.302C73.0027 209.181 72.9467 197.948 75.0761 186.971C77.1575 176.201 77.1414 176.297 87.8365 179.115C90.4221 179.802 91.2147 180.936 91.0386 183.522C90.4222 191.865 89.7417 200.224 89.5736 208.582C89.1733 227.455 88.2207 246.328 88.701 265.209C88.8291 270.215 88.4369 274.558 83.8178 277.727C81.9206 279.029 80.6798 281.304 79.1348 283.132C78.1021 284.362 76.9333 285.575 77.8779 287.371C78.8225 289.168 80.4556 288.968 82.0807 288.968C96.346 288.968 110.611 288.968 124.885 288.896C129.392 288.896 130.24 287.922 130.056 283.451C129.768 276.266 129.448 269.081 129.176 261.944C128.295 239.223 127.767 216.51 130.609 193.861C130.945 191.138 131.633 190.667 134.283 191.418C140.775 193.342 147.251 195.569 154.136 195.569C163.198 195.569 168.145 191.011 169.346 182.093C169.924 177.768 170.119 173.4 169.93 169.04V169.04ZM107.217 45.0248C107.609 41.999 110.539 42.486 112.533 41.9432C114.134 41.5041 115.583 42.4222 115.399 44.2504C115.07 47.4438 111.996 46.4458 110.331 47.3081C108.434 47.4518 106.985 46.845 107.217 45.0248ZM106.657 50.2699C108.85 50.7569 111.668 50.7888 112.357 53.615C112.677 54.9083 111.844 56.1617 109.811 56.1458C107.938 55.1957 104.776 55.6348 104.127 52.5372C103.807 51.0603 105.344 49.9825 106.657 50.2699V50.2699ZM95.6416 33.0416C98.9397 33.297 98.7876 36.235 99.292 38.3985C99.38 38.6948 99.3895 39.0087 99.3196 39.3098C99.2497 39.6108 99.1027 39.8887 98.8931 40.1162C98.6835 40.3438 98.4183 40.5133 98.1234 40.6082C97.8286 40.7031 97.5141 40.7202 97.2106 40.6578C94.1126 40.3385 94.5208 37.5123 93.7683 35.6681C93.7924 34.2231 94.0325 32.9218 95.6416 33.0416V33.0416ZM87.6363 40.2267C89.3735 41.2486 92.5516 40.8494 92.9358 44.1147C93.1039 45.5437 92.1353 46.9727 90.5823 46.4379C88.3568 45.6954 85.4829 45.3202 85.0346 42.3184C84.8905 41.1528 85.7871 40.1229 87.6443 40.2427L87.6363 40.2267ZM76.8132 68.4483C78.9987 64.249 81.016 59.882 84.2021 56.3054C86.1714 54.094 88.685 52.9763 91.711 54.2537C94.5529 55.4592 94.705 58.0139 94.841 60.6964C93.8724 67.0113 90.0379 71.6257 85.0506 75.2902C84.0185 76.0653 82.7494 76.4609 81.4584 76.4099C80.1673 76.359 78.9336 75.8647 77.966 75.0107C77.024 74.2314 76.3908 73.1432 76.1796 71.9409C75.9684 70.7386 76.193 69.5006 76.8132 68.4483V68.4483ZM129.007 148.842C116.719 160.522 96.1859 163.899 81.5924 152.419C75.9887 147.996 73.411 141.944 73.419 135.047C73.467 112.621 80.9279 92.7341 94.833 75.1704C98.0275 71.3459 100.845 67.2233 103.247 62.8599C105.6 58.3412 114.27 56.8323 117.984 60.361C119.393 61.7023 121.186 62.1414 122.643 63.2511C125.845 65.6461 126.894 70.8513 125.237 75.7133C124.308 78.4277 123.636 80.7349 126.302 83.1539C128.495 85.1258 127.903 88.0637 126.798 90.5945C125.637 93.4521 123.518 95.8195 120.802 97.2926C116.167 99.5919 114.878 103.823 113.373 107.991C112.116 111.471 111.26 115.096 110.291 118.672C109.947 119.942 109.347 121.467 110.339 122.489C111.54 123.726 112.741 124.828 111.612 126.528C110.483 128.229 108.986 130.177 106.977 130.704C103.775 131.558 103.471 129.107 103.855 126.816C105.03 119.49 106.833 112.279 109.243 105.26C111.092 99.9831 113.629 95.6161 118.849 92.8458C121.25 91.5765 123.764 89.4529 122.187 85.1897C120.626 87.5049 119.433 89.3491 118.184 91.1294C117.384 92.287 116.279 92.4307 115.054 91.6403C113.95 90.9218 113.838 90.0436 114.374 88.9259C116.463 84.4951 119.401 80.4874 120.546 75.5776C121.382 72.7955 121.323 69.8222 120.378 67.0752C119.665 71.6098 118.977 74.9788 116.936 77.8608C116.055 79.1063 115.206 80.5593 113.509 79.6651C111.812 78.771 111.908 77.0944 112.901 75.5456C114.102 73.8237 114.843 71.8245 115.053 69.7373C115.263 67.6502 114.936 65.544 114.102 63.6183C112.733 67.2668 112.276 71.1866 110.355 74.6036C110.099 75.0586 110.139 75.7452 109.803 76.0805C108.538 77.3499 108.074 80.3517 105.416 78.9147C103.014 77.6133 104.712 75.6574 105.416 74.0607C106.737 71.0908 108.826 68.3605 108.21 64.4805C99.6362 77.9167 88.7411 89.4928 83.6177 104.669C80.4956 113.914 78.1741 123.279 78.1181 133.067C78.054 143.541 83.5376 150.734 93.5842 153.456C105.752 156.754 116.487 153.888 125.717 145.473C127.214 144.1 128.535 143.23 130.072 144.874C131.609 146.519 130.184 147.748 129.007 148.866V148.842Z" fill="#F1EDEA"/>
</svg>
