<svg width="32" height="32" viewBox="0 0 32 32" fill="none" xmlns="http://www.w3.org/2000/svg">
<g clip-path="url(#clip0_3079_15763)">
<path d="M28.0224 15.6074C27.1717 16.2446 26.325 16.8865 25.4703 17.5177C22.7735 19.5093 20.0752 21.4995 17.3753 23.4885C16.4624 24.1642 15.5989 24.1993 14.6752 23.5222C12.376 21.8403 10.0958 20.1395 7.80748 18.4468C6.61328 17.5639 5.41863 16.6811 4.22353 15.7986C4.15252 15.7459 4.08828 15.6824 4.02066 15.6243C4.01593 14.3336 4.00781 13.0437 4.00781 11.753C4.00781 10.5299 4.0166 9.30685 4.02134 8.08377C4.02134 6.77015 4.0423 5.45518 4.00984 4.14223C3.97738 2.82928 4.8213 2.01502 6.15007 2.00488C8.00494 1.99069 9.85913 2.00151 11.7133 2.00083C11.8709 2.00083 12.0278 1.99745 12.1867 1.99542H19.811C21.7779 1.99542 23.7448 1.99655 25.7117 1.9988C25.981 1.99938 26.2493 2.03021 26.5117 2.0907C27.4496 2.30153 28.0095 3.06308 28.0149 4.13209C28.0224 5.4572 28.0203 6.78231 28.0224 8.10743V15.6074ZM16.0154 8.00404C14.4376 8.00404 12.8597 8.00404 11.2819 8.00404C11.1019 8.00076 10.9222 8.02144 10.7477 8.06553C10.2818 8.18919 10.0255 8.53381 10.0302 9.03521C10.0349 9.52309 10.2872 9.85284 10.7551 9.95826C10.9194 9.99481 11.0872 10.0136 11.2555 10.0143C14.4112 10.017 17.5669 10.017 20.7226 10.0143C20.9137 10.0145 21.1042 9.99321 21.2906 9.95082C21.7552 9.84473 22.0669 9.33118 21.9668 8.86425C21.841 8.27906 21.4854 8.00809 20.8172 8.00742C19.2155 8.00516 17.6149 8.00404 16.0154 8.00404ZM15.9965 14.0181H19.6481C20.0653 14.0181 20.4825 14.0316 20.8984 14.0133C21.3143 13.9951 21.67 13.8762 21.8728 13.4667C21.9565 13.3068 21.9953 13.1273 21.9852 12.9472C21.975 12.7671 21.9164 12.5931 21.8153 12.4436C21.5821 12.0665 21.1953 12.0125 20.8098 12.0118C17.5982 12.0051 14.3873 12.0051 11.1771 12.0118C11.0537 12.0158 10.9309 12.0316 10.8106 12.0591C10.2973 12.1645 10.0343 12.4875 10.0343 13.0051C10.0343 13.6322 10.4522 14.0187 11.1656 14.0187C12.7743 14.0228 14.3857 14.0181 15.9965 14.0181Z" fill="white"/>
<path d="M31.9992 15.1438V15.4952C31.9992 19.5816 31.9992 23.6677 31.9992 27.7537C31.9992 28.5287 31.8639 29.2808 31.4582 29.9545C30.6352 31.3229 29.4099 31.9966 27.8168 31.998C23.9754 32.0007 20.134 32.0007 16.2927 31.998C12.2597 31.998 8.22672 31.998 4.19376 31.998C2.36797 31.998 0.947907 31.0519 0.287242 29.4153C0.0742331 28.8855 0.00390625 28.328 0.00390625 27.7625C0.00390625 23.5729 0.00390625 19.3874 0.00390625 15.1398C0.262898 15.3276 0.494842 15.4925 0.72408 15.6621C4.98696 18.8124 9.24961 21.9633 13.512 25.1149C14.8178 26.0819 16.2088 26.284 17.7012 25.6102C18.1448 25.4075 18.5188 25.094 18.9069 24.8075C23.1797 21.6505 27.4518 18.4928 31.7233 15.3344C31.7916 15.281 31.868 15.2344 31.9992 15.1438Z" fill="#FFBFBF"/>
<path d="M4.01863 8.0838C4.0139 9.30688 4.00511 10.53 4.00511 11.753C4.00511 13.0437 4.01322 14.3337 4.01796 15.6243L0.801864 13.2917C0.701783 13.2187 0.598999 13.1457 0.502976 13.0721C-0.0542274 12.6592 -0.067077 12.595 0.150665 11.9112C0.406952 11.1064 0.845142 10.4245 1.52271 9.91842C2.35176 9.29877 3.18891 8.69466 4.01863 8.0838Z" fill="#FFBFBF"/>
<path d="M28.0234 15.6074V8.10675C29.0939 8.92236 30.2766 9.59809 31.1793 10.6212C31.673 11.18 31.8745 11.8652 31.9786 12.5875C31.9962 12.7078 31.9327 12.749 31.861 12.8011L28.0234 15.6074Z" fill="#FFBFBF"/>
<path d="M19.8119 1.99543H12.1875C12.909 1.42646 13.6285 0.836549 14.4366 0.410837C15.5767 -0.18989 16.7614 -0.12502 17.8677 0.559497C18.55 0.990106 19.1997 1.47003 19.8119 1.99543Z" fill="#FFBFBF"/>
<path d="M16.0133 8.00408C17.6132 8.00408 19.2136 8.00408 20.8144 8.00408C21.4839 8.00408 21.8396 8.27437 21.964 8.86091C22.0641 9.32784 21.7524 9.8414 21.2878 9.94749C21.1014 9.98988 20.9109 10.0112 20.7198 10.011C17.5641 10.0151 14.4084 10.0151 11.2527 10.011C11.0844 10.0103 10.9166 9.99147 10.7523 9.95492C10.2844 9.84951 10.0321 9.51975 10.0274 9.03187C10.0227 8.53048 10.279 8.18585 10.7449 8.06219C10.9194 8.0181 11.0991 7.99742 11.2791 8.0007C12.8578 8.00656 14.4359 8.00769 16.0133 8.00408Z" fill="#FFBFBF"/>
<path d="M15.9955 14.0181C14.3847 14.0181 12.7733 14.0222 11.1626 14.0181C10.4492 14.0181 10.0306 13.6323 10.0313 13.0045C10.0313 12.4855 10.2943 12.1625 10.8076 12.0585C10.9279 12.031 11.0507 12.0151 11.1741 12.0112C14.3847 12.0112 17.5957 12.0112 20.8068 12.0112C21.1922 12.0112 21.579 12.0659 21.8123 12.443C21.9133 12.5925 21.972 12.7665 21.9821 12.9466C21.9923 13.1267 21.9534 13.3062 21.8698 13.466C21.6669 13.8755 21.3052 13.9965 20.8961 14.014C20.4869 14.0316 20.063 14.0181 19.6457 14.0188L15.9955 14.0181Z" fill="#FFBFBF"/>
</g>
<defs>
<clipPath id="clip0_3079_15763">
<rect width="32" height="32" fill="white"/>
</clipPath>
</defs>
</svg>
