<svg width="381" height="202" viewBox="0 0 381 202" fill="none" xmlns="http://www.w3.org/2000/svg">
<g opacity="0.5">
<path d="M81.24 196.9L81.43 196.63L11 147.26C13.21 144.11 33.72 115.71 72.74 89.5C125.05 54.36 186.61 39.39 250.74 46.19L241.67 131.71C198.36 127.11 158.55 136.35 123.31 159.15C95.9 176.91 81.38 196.7 81.24 196.9Z" fill="#F37F7A"/>
</g>
<path opacity="0.8" d="M238.371 4.97563L329.561 11.5922C331.439 11.7285 333.186 12.6053 334.418 14.0296C335.649 15.454 336.265 17.3093 336.129 19.1874L334.864 36.6116L229.501 28.9667L230.765 11.5524C230.901 9.67435 231.778 7.9273 233.202 6.69565C234.627 5.46399 236.482 4.8486 238.36 4.98488L238.371 4.97563Z" fill="#F37F7A"/>
<path d="M332.84 38.89L333.02 36.47L231.35 29.09L231.17 31.52C231.076 32.8139 230.514 34.0293 229.59 34.94L213.59 50.69C211.851 52.3794 210.785 54.6432 210.59 57.06L201.51 182.31C201.416 183.612 201.58 184.92 201.991 186.159C202.403 187.398 203.054 188.543 203.908 189.531C204.763 190.518 205.803 191.327 206.97 191.912C208.137 192.497 209.408 192.846 210.71 192.94L329.78 201.58C331.082 201.674 332.39 201.511 333.629 201.099C334.868 200.688 336.014 200.036 337.001 199.182C337.988 198.327 338.797 197.287 339.382 196.12C339.967 194.953 340.316 193.682 340.41 192.38L349.5 67.14C349.669 64.7287 348.958 62.3379 347.5 60.41L333.91 42.5C333.129 41.4657 332.749 40.1831 332.84 38.89Z" fill="#F37F7A"/>
<path d="M269.91 132.86C275.195 132.86 279.48 128.575 279.48 123.29C279.48 118.005 275.195 113.72 269.91 113.72C264.624 113.72 260.34 118.005 260.34 123.29C260.34 128.575 264.624 132.86 269.91 132.86Z" fill="white"/>
<path d="M279.431 124.19C279.597 122.483 279.299 120.763 278.57 119.211C277.841 117.659 276.707 116.333 275.288 115.371C273.868 114.409 272.216 113.847 270.504 113.745C268.792 113.643 267.085 114.004 265.561 114.79C264.91 116.352 264.636 118.046 264.763 119.734C264.889 121.422 265.412 123.057 266.289 124.505C267.166 125.952 268.372 127.173 269.809 128.067C271.247 128.961 272.875 129.503 274.561 129.65C275.398 129.724 276.24 129.697 277.071 129.57C278.406 128.071 279.232 126.188 279.431 124.19Z" fill="#10143B"/>
<path d="M237.041 131.9C242.326 131.9 246.611 127.615 246.611 122.33C246.611 117.045 242.326 112.76 237.041 112.76C231.755 112.76 227.471 117.045 227.471 122.33C227.471 127.615 231.755 131.9 237.041 131.9Z" fill="white"/>
<path d="M246.56 123.23C246.729 121.522 246.434 119.801 245.706 118.247C244.978 116.693 243.844 115.364 242.423 114.402C241.003 113.439 239.348 112.877 237.635 112.777C235.922 112.676 234.214 113.04 232.69 113.83C232.039 115.392 231.765 117.085 231.891 118.773C232.018 120.46 232.541 122.094 233.418 123.541C234.295 124.988 235.501 126.208 236.939 127.101C238.376 127.994 240.004 128.535 241.69 128.68C242.527 128.757 243.369 128.734 244.2 128.61C245.54 127.114 246.367 125.229 246.56 123.23Z" fill="#10143B"/>
<path d="M261 139.45C258 138.45 254.55 139.68 253.6 140.15" stroke="#10143B" stroke-width="1.2" stroke-linecap="round" stroke-linejoin="round"/>
<path d="M227 116.9C227 116.9 236 117.18 239.41 110.06L232.26 111.44L227 116.9Z" fill="#F37F7A"/>
<path d="M226.369 116.93C226.369 116.93 235.789 116.77 239.299 111.06" stroke="#10143B" stroke-linecap="round" stroke-linejoin="round"/>
<path d="M271.17 109.68C271.17 109.68 279.47 108.61 281.77 114.01" stroke="#10143B" stroke-width="1.2" stroke-linecap="round" stroke-linejoin="round"/>
<path d="M176.219 81.79L168.589 35.89L33.5293 58.32L41.1593 104.22C43.1593 116.22 74.9993 120.95 112.299 114.75C149.599 108.55 178.209 93.8 176.219 81.79Z" fill="#F48C8C"/>
<path d="M104.673 68.8477C141.972 62.653 170.591 47.8968 168.597 35.8889C166.602 23.8811 134.749 19.1686 97.4509 25.3634C60.1524 31.5582 31.5328 46.3144 33.5271 58.3222C35.5215 70.3301 67.3746 75.0425 104.673 68.8477Z" fill="#F37F7A"/>
</svg>
