<svg width="1440" height="420" viewBox="0 0 1440 420" fill="none" xmlns="http://www.w3.org/2000/svg">
<g clip-path="url(#clip0_2806_11428)">
<path d="M0 335.94C193.23 379.53 444.85 405.89 720 405.89C995.15 405.89 1246.77 379.53 1440 335.94V0H0V335.94Z" fill="url(#paint0_linear_2806_11428)"/>
<path d="M220.39 110.83L105.89 357.06C151.75 365.12 200.04 372.29 250.42 378.51L347.1 170.61L313.85 76.9L220.39 110.83Z" fill="#F37F7A"/>
<path d="M256.72 35L163.26 68.9L35.52 343.62C58.26 348.327 81.7167 352.807 105.89 357.06L220.39 110.83L313.85 76.9L320.07 62.79L263 20.86L256.72 35Z" fill="#F48C8C"/>
<path d="M1305.97 255.957L1261.86 263.284C1256.27 264.211 1252.5 269.49 1253.42 275.074L1259.55 311.979C1260.48 317.563 1265.76 321.338 1271.34 320.411L1315.46 313.084C1321.04 312.156 1324.82 306.877 1323.89 301.293L1317.76 264.389C1316.83 258.804 1311.56 255.029 1305.97 255.957Z" fill="#F37F7A"/>
<path d="M1343.86 269.7L1230.47 288.53C1228.01 288.935 1225.49 288.407 1223.4 287.049C1221.31 285.691 1219.8 283.602 1219.17 281.19L1157 41.21C1156.35 38.7212 1156.23 36.1253 1156.65 33.5876C1157.06 31.0499 1158 28.6261 1159.4 26.4707C1160.8 24.3153 1162.64 22.4756 1164.79 21.0688C1166.94 19.6621 1169.36 18.7191 1171.9 18.3L1311.92 -5C1314.46 -5.42098 1317.05 -5.30943 1319.54 -4.67246C1322.03 -4.03548 1324.36 -2.88702 1326.39 -1.30018C1328.41 0.286671 1330.08 2.27715 1331.29 4.54459C1332.5 6.81202 1333.23 9.30675 1333.42 11.87L1352.18 259.06C1352.37 261.553 1351.63 264.027 1350.09 265.997C1348.55 267.966 1346.33 269.288 1343.86 269.7Z" fill="#F48C8C"/>
<path d="M1266.87 220.42C1273.81 220.42 1279.43 214.797 1279.43 207.86C1279.43 200.923 1273.81 195.3 1266.87 195.3C1259.93 195.3 1254.31 200.923 1254.31 207.86C1254.31 214.797 1259.93 220.42 1266.87 220.42Z" fill="white"/>
<path d="M1279.37 209C1279.59 206.76 1279.19 204.503 1278.24 202.466C1277.28 200.43 1275.79 198.689 1273.93 197.426C1272.06 196.164 1269.9 195.427 1267.65 195.292C1265.4 195.157 1263.16 195.629 1261.16 196.66C1260.3 198.715 1259.93 200.945 1260.1 203.168C1260.26 205.391 1260.95 207.543 1262.1 209.45C1263.26 211.356 1264.85 212.963 1266.74 214.138C1268.63 215.312 1270.78 216.023 1273 216.21C1274.1 216.302 1275.2 216.269 1276.29 216.11C1278.05 214.13 1279.13 211.638 1279.37 209Z" fill="#10143B"/>
<path d="M1223.72 219.16C1230.66 219.16 1236.28 213.537 1236.28 206.6C1236.28 199.663 1230.66 194.04 1223.72 194.04C1216.78 194.04 1211.16 199.663 1211.16 206.6C1211.16 213.537 1216.78 219.16 1223.72 219.16Z" fill="white"/>
<path d="M1236.22 207.78C1236.44 205.537 1236.05 203.277 1235.09 201.237C1234.14 199.197 1232.65 197.454 1230.78 196.19C1228.92 194.927 1226.74 194.19 1224.49 194.058C1222.24 193.926 1220 194.403 1218 195.44C1217.47 196.717 1217.13 198.065 1217 199.44C1216.82 201.304 1217.02 203.184 1217.57 204.973C1218.12 206.762 1219.01 208.425 1220.21 209.867C1221.4 211.309 1222.87 212.502 1224.52 213.378C1226.18 214.253 1227.99 214.794 1229.85 214.97C1230.95 215.071 1232.05 215.04 1233.14 214.88C1234.89 212.899 1235.97 210.413 1236.22 207.78Z" fill="#10143B"/>
<path d="M1239.5 221.81C1239.5 221.81 1242.71 229.46 1249.13 223.99" stroke="#10143B" stroke-width="1.58" stroke-linecap="round" stroke-linejoin="round"/>
<path d="M298.32 181.56C305.257 181.56 310.88 175.937 310.88 169C310.88 162.063 305.257 156.44 298.32 156.44C291.383 156.44 285.76 162.063 285.76 169C285.76 175.937 291.383 181.56 298.32 181.56Z" fill="white"/>
<path d="M310.83 170.18C310.984 168.538 310.814 166.881 310.328 165.305C309.842 163.729 309.05 162.264 307.998 160.993C306.946 159.723 305.654 158.673 304.196 157.902C302.738 157.131 301.142 156.654 299.5 156.5C297.126 156.277 294.737 156.743 292.62 157.84C292.09 159.116 291.752 160.464 291.62 161.84C291.264 165.605 292.417 169.357 294.827 172.271C297.237 175.185 300.706 177.023 304.47 177.38C305.567 177.472 306.671 177.439 307.76 177.28C309.51 175.299 310.585 172.812 310.83 170.18Z" fill="#10143B"/>
<path d="M255.17 180.3C262.107 180.3 267.73 174.677 267.73 167.74C267.73 160.803 262.107 155.18 255.17 155.18C248.233 155.18 242.61 160.803 242.61 167.74C242.61 174.677 248.233 180.3 255.17 180.3Z" fill="white"/>
<path d="M267.68 168.92C267.836 167.277 267.666 165.619 267.181 164.042C266.696 162.465 265.904 160.998 264.852 159.727C263.8 158.456 262.507 157.404 261.048 156.632C259.59 155.861 257.993 155.384 256.35 155.23C253.975 155.01 251.586 155.479 249.47 156.58C248.942 157.857 248.605 159.205 248.47 160.58C248.117 164.345 249.273 168.095 251.684 171.008C254.096 173.92 257.565 175.755 261.33 176.11C262.426 176.211 263.531 176.18 264.62 176.02C266.365 174.036 267.436 171.551 267.68 168.92Z" fill="#10143B"/>
<path d="M271 183C271 183 274.22 190.65 280.64 185.18" stroke="#10143B" stroke-width="1.58" stroke-linecap="round" stroke-linejoin="round"/>
<path d="M483.46 96.83C481.328 93.5223 478.894 90.4191 476.19 87.56C475.89 87.1999 475.523 86.9011 475.11 86.68C474.696 86.5414 474.258 86.4946 473.824 86.543C473.391 86.5914 472.973 86.7337 472.6 86.96C469.138 88.3822 465.774 90.0325 462.53 91.9" stroke="white" stroke-width="3" stroke-linecap="round" stroke-linejoin="round"/>
<path d="M-47.47 288.53C-11.06 307.18 30.3 315.53 71.09 313.69C108.84 311.98 154.33 303.35 181.39 275.48C190.78 265.81 210.86 243.38 200.03 233.85C193.43 228.04 184.03 234.13 180.52 239.24C178.458 242.311 177.03 245.763 176.321 249.393C175.612 253.023 175.635 256.759 176.39 260.38C178.28 269.12 186.26 273.8 194.27 276.14C208.39 280.25 223.98 279.37 238.44 277.94C276.239 274.215 312.794 262.397 345.62 243.29C391.62 216.35 453.38 154.68 474.39 88.71" stroke="white" stroke-width="3" stroke-linecap="round" stroke-linejoin="round"/>
<path d="M1157.57 8.13C1150.8 1.62 1147.36 -9.45 1139.36 -13.34C1131.06 -17.34 1120.18 -13.15 1111.23 -14.39C1102.28 -15.63 1092.86 -22.63 1083.87 -21.04C1074.88 -19.45 1068.62 -9.73 1060.48 -5.38C1052.63 -1.19 1040.97 -1.38 1034.48 5.34C1027.99 12.06 1028.65 23.74 1024.76 31.75C1020.76 40.05 1011.23 46.75 1010 55.75C1008.77 64.75 1016.09 73.84 1017.68 82.83C1019.27 91.82 1015.45 102.76 1019.79 110.9C1023.99 118.75 1035.18 121.77 1041.94 128.28C1048.7 134.79 1052.14 145.86 1060.15 149.75C1068.45 153.75 1079.33 149.56 1088.28 150.8C1097.23 152.04 1106.65 159.04 1115.64 157.45C1124.63 155.86 1130.89 146.14 1139.03 141.79C1146.88 137.6 1158.54 137.79 1165.03 131.07C1171.52 124.35 1170.86 112.67 1174.75 104.66C1178.75 96.36 1188.27 89.66 1189.51 80.66C1190.75 71.66 1183.42 62.56 1181.83 53.57C1180.24 44.58 1184.06 33.64 1179.71 25.5C1175.52 17.66 1164.33 14.64 1157.57 8.13Z" fill="#F37F7A"/>
<path d="M1097.43 108.6C1104.37 108.6 1109.99 102.977 1109.99 96.04C1109.99 89.1033 1104.37 83.48 1097.43 83.48C1090.49 83.48 1084.87 89.1033 1084.87 96.04C1084.87 102.977 1090.49 108.6 1097.43 108.6Z" fill="white"/>
<path d="M1084.93 97.22C1084.71 94.9788 1085.1 92.7201 1086.06 90.6817C1087.01 88.6432 1088.5 86.9006 1090.37 85.6374C1092.23 84.3741 1094.4 83.6371 1096.65 83.5038C1098.9 83.3705 1101.14 83.8459 1103.14 84.88C1104 86.9324 1104.35 89.1578 1104.19 91.375C1104.02 93.5921 1103.33 95.7383 1102.18 97.6389C1101.02 99.5394 1099.43 101.141 1097.55 102.312C1095.66 103.483 1093.52 104.192 1091.3 104.38C1090.2 104.481 1089.1 104.451 1088.01 104.29C1086.26 102.319 1085.18 99.8436 1084.93 97.22Z" fill="#10143B"/>
<path d="M1140.58 107.34C1147.52 107.34 1153.14 101.717 1153.14 94.78C1153.14 87.8433 1147.52 82.22 1140.58 82.22C1133.64 82.22 1128.02 87.8433 1128.02 94.78C1128.02 101.717 1133.64 107.34 1140.58 107.34Z" fill="white"/>
<path d="M1128.08 96C1127.86 93.7588 1128.25 91.5001 1129.21 89.4617C1130.16 87.4232 1131.65 85.6806 1133.52 84.4174C1135.38 83.1541 1137.55 82.4171 1139.8 82.2838C1142.05 82.1505 1144.29 82.6259 1146.29 83.66C1146.82 84.9367 1147.16 86.2846 1147.29 87.66C1147.47 89.5235 1147.27 91.4036 1146.72 93.1927C1146.17 94.9818 1145.28 96.645 1144.08 98.0871C1142.89 99.5293 1141.42 100.722 1139.77 101.598C1138.11 102.473 1136.3 103.014 1134.44 103.19C1133.34 103.291 1132.24 103.26 1131.15 103.1C1129.4 101.117 1128.33 98.6317 1128.08 96Z" fill="#10143B"/>
<path d="M1124.8 110C1124.8 110 1121.59 117.65 1115.17 112.18" stroke="#10143B" stroke-width="1.58" stroke-linecap="round" stroke-linejoin="round"/>
<path d="M688 -21.27C693.48 5.37 712.84 37.83 733.54 56.26C745.352 66.8914 759.232 74.969 774.311 79.9867C789.39 85.0044 805.343 86.8541 821.17 85.42C827.17 84.89 833.17 83.01 837.66 79.08C842.15 75.15 844.97 68.96 843.85 63.08C842.73 57.2 837.15 52.2 831.18 52.67C829.318 52.9056 827.522 53.5097 825.896 54.4471C824.27 55.3846 822.847 56.6366 821.71 58.13C811.13 71.08 819.52 91.44 829.3 102.72C837.6 112.29 848.64 119.17 860.3 124.15C876.43 131.04 898.83 137.31 916.53 134.04C929.53 131.64 941.53 117.17 936.3 103.82C932.5 94.1 921.1 88.05 910.93 90.34C885.57 96.04 893.19 127.72 908 140.05C941.93 168.3 990.29 172.87 1032.39 177.67C1116.53 187.25 1209.05 170.55 1282.17 126.78" stroke="white" stroke-width="3" stroke-linecap="round" stroke-linejoin="round"/>
<path d="M1284.81 135.38C1284.76 132.249 1284.43 129.13 1283.81 126.06C1283.75 125.687 1283.63 125.327 1283.44 125C1283.22 124.736 1282.94 124.523 1282.62 124.376C1282.31 124.23 1281.97 124.152 1281.62 124.15C1278.68 123.669 1275.71 123.385 1272.73 123.3" stroke="white" stroke-width="3" stroke-linecap="round" stroke-linejoin="round"/>
</g>
<defs>
<linearGradient id="paint0_linear_2806_11428" x1="720" y1="540.73" x2="720" y2="24.12" gradientUnits="userSpaceOnUse">
<stop stop-color="#FEFAFA"/>
<stop offset="0.01" stop-color="#FEFAFA"/>
<stop offset="0.58" stop-color="#EFEBE8"/>
<stop offset="1" stop-color="#EAE6E2"/>
</linearGradient>
<clipPath id="clip0_2806_11428">
<rect width="1440" height="420" fill="white"/>
</clipPath>
</defs>
</svg>
