<svg width="168" height="24" viewBox="0 0 168 24" fill="none" xmlns="http://www.w3.org/2000/svg">
<path d="M138.406 16.5653C138.406 16.1838 138.557 15.8179 138.826 15.5481C139.095 15.2784 139.46 15.1268 139.84 15.1268C140.22 15.1268 140.585 15.2784 140.853 15.5481C141.122 15.8179 141.273 16.1838 141.273 16.5653C141.283 16.759 141.254 16.9528 141.187 17.1347C141.12 17.3167 141.017 17.4831 140.883 17.6237C140.75 17.7643 140.59 17.8762 140.412 17.9526C140.234 18.029 140.043 18.0682 139.85 18.068C139.656 18.0681 139.463 18.0289 139.285 17.9528C139.106 17.8766 138.944 17.765 138.809 17.6247C138.675 17.4844 138.57 17.3183 138.5 17.1362C138.431 16.9542 138.399 16.76 138.406 16.5653Z" fill="#FEFAFA"/>
<path d="M142.452 16.6767L143.346 15.194C144.481 15.9475 145.817 16.3389 147.178 16.3167C148.565 16.3167 149.74 15.8682 149.74 14.654C149.74 12.0828 143.269 14.1169 143.269 9.60019C143.269 7.33183 144.949 6.23193 147.457 6.23193C149.829 6.23193 151.486 7.24327 151.486 9.1288C151.488 9.3213 151.466 9.51334 151.42 9.70018L149.47 9.94587C149.516 9.80097 149.539 9.64955 149.538 9.49734C149.538 8.55457 148.844 7.9232 147.457 7.9232C146.182 7.9232 145.353 8.46315 145.353 9.54305C145.353 12.4399 151.867 10.2144 151.867 14.6197C151.867 17.1338 149.74 18.0765 147.187 18.0765C145.505 18.089 143.858 17.6019 142.452 16.6767Z" fill="#FEFAFA"/>
<path d="M163.247 7.93755C162.883 7.92809 162.524 8.02754 162.216 8.22324C162.572 8.85284 162.75 9.56796 162.732 10.2916C162.732 12.8628 160.807 14.3341 158.142 14.3341C157.294 14.3459 156.454 14.1693 155.682 13.817C155.548 13.9366 155.439 14.0819 155.362 14.2443C155.285 14.4067 155.241 14.5829 155.232 14.7626C155.232 15.6368 156.087 16.0197 157.203 16.1311L160.07 16.4453C161.883 16.6482 163.674 17.1881 163.674 19.2536C163.674 21.3192 161.838 23.0047 157.966 23.0047C155.099 23.0047 152.556 22.0162 152.556 19.6365C152.548 19.0442 152.734 18.4656 153.084 17.9887C153.434 17.5117 153.929 17.1624 154.495 16.9938C154.201 16.7916 153.962 16.5196 153.798 16.2022C153.634 15.8847 153.551 15.5315 153.555 15.174C153.559 14.7677 153.666 14.369 153.865 14.0152C154.064 13.6614 154.349 13.3642 154.694 13.1513C154.303 12.7888 153.995 12.346 153.79 11.8529C153.585 11.3599 153.489 10.8283 153.507 10.2945C153.507 7.72329 155.5 6.22914 158.139 6.22914C159.211 6.19451 160.267 6.49392 161.163 7.0862C161.755 6.52547 162.541 6.21807 163.355 6.22914C163.844 6.22513 164.329 6.32238 164.779 6.51483L164.152 8.10896C163.864 7.99538 163.557 7.93723 163.247 7.93755ZM156.351 17.6195C156.179 17.5997 156.008 17.5701 155.839 17.5309C154.942 17.8909 154.449 18.5194 154.449 19.3508C154.449 20.7792 156.038 21.4391 157.986 21.4391C160.07 21.4391 161.524 20.6764 161.524 19.4165C161.524 18.4051 160.585 18.068 159.196 17.9109L156.351 17.6195ZM160.761 10.2973C160.761 8.74605 159.711 7.80328 158.142 7.80328C156.573 7.80328 155.48 8.74605 155.48 10.2973C155.48 11.8486 156.553 12.7685 158.142 12.7685C159.731 12.7685 160.761 11.8258 160.761 10.2973Z" fill="#FEFAFA"/>
<path d="M30.8528 15.1911L31.744 16.5052C31.2008 17.0131 30.5631 17.4082 29.8673 17.6681C29.1716 17.9279 28.4316 18.0473 27.6897 18.0194C26.927 18.0559 26.1653 17.928 25.4559 17.6443C24.7466 17.3606 24.1061 16.9276 23.5776 16.3745C23.049 15.8214 22.6448 15.1611 22.392 14.438C22.1393 13.715 22.0439 12.946 22.1123 12.1828C22.1123 8.7374 24.0569 6.31763 27.4022 6.31763C30.0841 6.31763 31.9233 7.82891 31.9233 10.5058C31.9409 11.2982 31.765 12.0828 31.4108 12.7913H24.2362C24.1998 13.51 24.3924 14.2216 24.7861 14.823C25.1797 15.4245 25.754 15.8846 26.4256 16.1367C26.8726 16.3039 27.3466 16.3863 27.8235 16.3795C28.3819 16.3767 28.9352 16.2741 29.4578 16.0767C29.9775 15.8789 30.4521 15.5777 30.8528 15.1911ZM24.3273 11.3514H29.8592C29.9282 11.106 29.9637 10.8523 29.9645 10.5972C29.987 10.2543 29.9366 9.91057 29.8165 9.58875C29.6944 9.2673 29.5062 8.97527 29.2642 8.73169C29.0207 8.48992 28.7288 8.30297 28.4077 8.18327C28.0866 8.06356 27.7439 8.01386 27.4022 8.03747C25.563 8.04032 24.5693 9.37163 24.3273 11.3514Z" fill="#FEFAFA"/>
<path d="M33.3721 12.2429C33.3721 8.79746 35.2569 6.37769 38.6933 6.37769C41.2557 6.37769 43.0038 7.64899 43.0038 9.84022C43.0038 10.1933 42.9529 10.5445 42.8529 10.883L40.9226 11.1258C41.0098 10.8484 41.0559 10.5596 41.0592 10.2687C41.0674 9.96404 41.0101 9.66114 40.8913 9.38063C40.7724 9.10013 40.5947 8.84861 40.3702 8.64319C40.1461 8.4374 39.8799 8.28334 39.5901 8.1918C39.3005 8.10026 38.9947 8.07201 38.6933 8.10895C36.5808 8.10895 35.5416 9.95164 35.5416 12.2486C35.5416 14.5455 36.7488 16.3453 39.1147 16.3453C40.1499 16.3623 41.1505 15.9716 41.902 15.2569L42.8529 16.6024C41.7792 17.5964 40.3645 18.1357 38.904 18.108C38.1417 18.1407 37.3814 18.0088 36.6743 17.7212C35.9672 17.4336 35.3299 16.997 34.8054 16.441C34.281 15.8849 33.8816 15.2224 33.6344 14.4981C33.3871 13.7739 33.2977 13.0048 33.3721 12.2429Z" fill="#FEFAFA"/>
<path d="M55.0924 6.57471L50.9015 18.5736C49.9819 21.2505 48.7776 22.9732 46.3063 22.9732C45.3777 22.9877 44.4635 22.7413 43.6671 22.2618L44.376 20.7505C44.8582 21.0564 45.4169 21.2188 45.9874 21.219C47.4964 21.219 48.2053 20.1306 49.0025 17.8622H48.0231L43.6528 6.57471H45.8536L49.5235 16.1738H49.6915L53.051 6.57471H55.0924Z" fill="#FEFAFA"/>
<path d="M55.6053 12.2429C55.6053 8.79746 57.4901 6.37769 60.9265 6.37769C63.4889 6.37769 65.2398 7.64899 65.2398 9.84022C65.2398 10.1933 65.189 10.5445 65.0889 10.883L63.1586 11.1258C63.2257 10.8589 63.2563 10.584 63.2497 10.3087C63.2586 10.0039 63.2013 9.70069 63.0817 9.42026C62.9626 9.14002 62.7849 8.88868 62.5607 8.68319C62.3365 8.4769 62.0708 8.3214 61.7814 8.22725C61.4921 8.1331 61.1859 8.1025 60.8838 8.13752C58.7712 8.13752 57.7321 9.98306 57.7321 12.28C57.7321 14.5769 58.9392 16.3767 61.3051 16.3767C62.3404 16.3938 63.341 16.003 64.0924 15.2883L65.0434 16.6339C63.9706 17.6299 62.5557 18.1713 61.0945 18.1452C60.3316 18.1719 59.5719 18.034 58.8667 17.7408C58.1616 17.4475 57.5274 17.0058 57.007 16.4454C56.4866 15.8851 56.0921 15.2191 55.8503 14.4926C55.6085 13.7661 55.525 12.996 55.6053 12.2343V12.2429Z" fill="#FEFAFA"/>
<path d="M69.2798 0.995239V17.8679H67.1758V0.995239H69.2798Z" fill="#FEFAFA"/>
<path d="M82.0177 12.2429C82.0177 15.6711 80.0247 18.0794 76.6338 18.0794C73.243 18.0794 71.2842 15.6597 71.2842 12.2429C71.2842 8.82603 73.3028 6.37769 76.6338 6.37769C79.9649 6.37769 82.0177 8.79746 82.0177 12.2429ZM73.4536 12.2429C73.4536 14.5712 74.5099 16.3396 76.6338 16.3396C78.7578 16.3396 79.8453 14.5712 79.8453 12.2429C79.8453 9.9145 78.7919 8.10324 76.6338 8.10324C74.4758 8.10324 73.4536 9.90021 73.4536 12.2429Z" fill="#FEFAFA"/>
<path d="M94.7097 12.2429C94.7097 15.6711 92.8848 18.0795 89.901 18.0795C89.1165 18.1155 88.3395 17.9123 87.6723 17.4967C87.005 17.0811 86.4788 16.4726 86.1628 15.7511V22.7647H84.0503V6.57482H85.9977V9.06887C86.276 8.26045 86.8053 7.56286 87.5079 7.0785C88.2104 6.59414 89.0492 6.34852 89.901 6.37769C92.8848 6.37769 94.7097 8.79747 94.7097 12.2429ZM92.5374 12.2429C92.5374 9.93165 91.4527 8.13182 89.343 8.13182C87.2333 8.13182 86.1771 9.90022 86.1771 12.2429C86.1771 14.5855 87.2618 16.3253 89.343 16.3253C91.4242 16.3253 92.5374 14.5426 92.5374 12.2429Z" fill="#FEFAFA"/>
<path d="M104.871 15.1911L105.759 16.5052C105.217 17.0145 104.579 17.4106 103.883 17.6705C103.187 17.9305 102.447 18.049 101.705 18.0194C100.943 18.0531 100.182 17.9233 99.4742 17.6386C98.7662 17.3538 98.1268 16.9208 97.5989 16.3683C97.071 15.8159 96.6666 15.1567 96.4129 14.435C96.1591 13.7132 96.0617 12.9454 96.1273 12.1828C96.1273 8.7374 98.069 6.31763 101.417 6.31763C104.099 6.31763 105.938 7.82891 105.938 10.5058C105.952 11.2958 105.782 12.0782 105.443 12.7913H98.2654C98.241 13.2657 98.3167 13.7399 98.4874 14.183C98.6581 14.626 98.9201 15.028 99.2562 15.3625C99.5937 15.7009 99.9981 15.9647 100.443 16.1367C100.889 16.304 101.364 16.3751 101.838 16.3453C102.396 16.3681 102.952 16.2768 103.473 16.0767C103.993 15.8783 104.468 15.5771 104.871 15.1911ZM98.3423 11.3514H103.951C104.174 10.7383 104.147 10.0616 103.875 9.4687C103.603 8.87581 103.108 8.41477 102.499 8.18602C102.177 8.06645 101.834 8.01679 101.491 8.04032C99.632 8.04032 98.5843 9.37163 98.3423 11.3514Z" fill="#FEFAFA"/>
<path d="M118.058 0.995239V17.8679H116.113V15.4025C115.827 16.2033 115.295 16.8924 114.593 17.3708C113.892 17.8491 113.058 18.0922 112.21 18.0651C109.195 18.0651 107.401 15.6453 107.401 12.2285C107.401 8.81165 109.226 6.36331 112.21 6.36331C112.995 6.32729 113.772 6.53045 114.439 6.94605C115.106 7.36164 115.632 7.97021 115.948 8.69166V0.995239H118.058ZM116.008 12.2399C116.008 9.89726 114.923 8.12886 112.842 8.12886C110.761 8.12886 109.648 9.92869 109.648 12.2399C109.648 14.5511 110.735 16.3252 112.842 16.3252C114.949 16.3252 116.008 14.5425 116.008 12.2428V12.2399Z" fill="#FEFAFA"/>
<path d="M120.743 3.49218C120.743 3.31046 120.78 3.13062 120.851 2.96366C120.922 2.79691 121.026 2.64662 121.157 2.52223C121.289 2.39785 121.444 2.30205 121.614 2.24087C121.783 2.17732 121.964 2.15007 122.144 2.16088C122.323 2.15254 122.502 2.18076 122.67 2.24383C122.838 2.3069 122.992 2.40351 123.121 2.52783C123.251 2.65214 123.354 2.80156 123.425 2.96707C123.495 3.13258 123.532 3.31073 123.532 3.49075C123.532 3.67077 123.495 3.84892 123.425 4.01443C123.354 4.17994 123.251 4.32937 123.121 4.45368C122.992 4.57799 122.838 4.6746 122.67 4.73767C122.502 4.80074 122.323 4.82896 122.144 4.82063C121.964 4.83235 121.783 4.80607 121.614 4.74349C121.444 4.6793 121.288 4.58224 121.156 4.4578C121.026 4.33233 120.922 4.18195 120.851 4.01559C120.781 3.84922 120.744 3.67026 120.743 3.48932V3.49218ZM121.073 6.51475H123.183V17.868H121.073V6.51475Z" fill="#FEFAFA"/>
<path d="M136.843 17.6566C136.364 17.9404 135.817 18.0867 135.261 18.0794C134.697 18.1348 134.133 17.9687 133.689 17.616C133.244 17.2633 132.954 16.7515 132.878 16.1881C132.492 16.8129 131.943 17.3197 131.29 17.6531C130.638 17.9866 129.907 18.134 129.176 18.0794C127.109 18.0794 125.543 17.0966 125.543 15.0568C125.543 12.4856 127.941 11.88 130.065 11.6286L132.718 11.3114V10.6858C132.718 9.04023 131.995 8.13175 130.44 8.13175C129.265 8.13175 128.314 8.70312 128.314 9.64303C128.317 9.88784 128.368 10.1296 128.465 10.3544L126.611 10.6401C126.443 10.265 126.36 9.85706 126.369 9.44591C126.395 7.56609 127.995 6.42333 130.512 6.42333C131.079 6.34699 131.657 6.3994 132.202 6.57669C132.746 6.75398 133.245 7.05164 133.66 7.44776C134.075 7.84387 134.396 8.32834 134.599 8.8655C134.803 9.40265 134.884 9.9788 134.836 10.5515V15.3282C134.836 15.9939 135.138 16.3853 135.71 16.3853C135.923 16.3914 136.134 16.3337 136.314 16.2196L136.843 17.6566ZM132.681 13.3313V12.8027L130.452 13.0599C128.943 13.2427 127.588 13.5598 127.588 14.934C127.588 16.0767 128.567 16.4453 129.743 16.4453C130.151 16.4764 130.561 16.4157 130.943 16.2678C131.325 16.1198 131.669 15.8882 131.951 15.5899C132.232 15.2916 132.444 14.9341 132.57 14.5434C132.696 14.1526 132.734 13.7386 132.681 13.3313Z" fill="#FEFAFA"/>
<path d="M16.8051 16.6137C15.9369 16.4676 15.0942 16.1972 14.3025 15.811C13.3154 15.3305 12.4337 14.6574 11.7088 13.8312C12.9237 13.9738 14.1547 13.8749 15.3315 13.5401C16.5084 13.2053 17.6079 12.6412 18.5674 11.8799C19.6054 11.0845 20.3736 9.98731 20.7675 8.73782C21.1613 7.48832 21.1616 6.14735 20.7682 4.8977C20.3995 3.93185 19.7358 3.10776 18.8721 2.54331C18.0084 1.97886 16.9889 1.70298 15.9595 1.75514C14.1525 1.81762 12.4005 2.39514 10.9086 3.42015C9.41674 4.44515 8.24656 5.87526 7.535 7.54317C5.96341 11.28 4.42884 14.9053 3.22168 18.1365H5.3399C6.47873 15.111 7.90227 11.7256 9.3799 8.24882C9.94932 6.90323 10.6896 5.81476 11.891 4.98055C13.0925 4.14635 14.4534 3.8378 15.9139 3.76067C16.5509 3.70809 17.188 3.86098 17.7324 4.19705C18.2768 4.53312 18.7 5.03482 18.9404 5.62906C19.1741 6.50752 19.1242 7.43771 18.798 8.28596C18.5363 9.13913 18.0632 9.91173 17.4229 10.5315C16.3353 11.4628 13.9124 12.2713 11.965 12.0427C12.2576 11.7887 12.5352 11.5178 12.7964 11.2314C13.5508 10.4096 14.1906 9.48895 14.6982 8.49451L13.3373 7.76886C12.8446 8.60303 12.2412 9.36614 11.5437 10.0372C10.8642 10.7313 10.1163 11.3544 9.31157 11.897L8.6055 12.3484L8.99555 13.0912C10.0053 14.9795 11.5906 16.4941 13.5195 17.4137C14.423 17.8654 15.398 18.1554 16.4008 18.2707C17.5371 18.4431 18.6984 18.3212 19.7746 17.9165L19.2621 16.488C18.4637 16.7195 17.6228 16.7625 16.8051 16.6137Z" fill="#FEFAFA"/>
</svg>
