<svg width="42" height="19" viewBox="0 0 42 19" fill="none" xmlns="http://www.w3.org/2000/svg">
<path fill-rule="evenodd" clip-rule="evenodd" d="M33.6081 0.0855956C36.565 0.079682 38.7086 0.552778 40.0392 1.50487C40.6409 1.89143 41.1357 2.42301 41.4782 3.05076C41.8208 3.6785 42.0001 4.38227 41.9996 5.09739C42.0003 5.50958 41.9527 5.92043 41.8577 6.32152C41.688 7.07262 41.3317 7.7688 40.8215 8.3456C40.3114 8.9224 39.664 9.36118 38.9393 9.62132C37.1485 10.3057 35.2407 10.6313 33.3243 10.5793C32.2947 10.5866 31.2659 10.5184 30.2462 10.3753C30.1693 10.8533 30.2143 11.3429 30.3771 11.7988C30.54 12.2548 30.8153 12.6622 31.1776 12.9832C32.0184 13.5237 33.0097 13.7817 34.0073 13.7195C34.548 13.7214 35.087 13.6589 35.6129 13.5332C36.1273 13.4001 36.7838 13.205 37.5732 12.9566C37.9974 12.775 38.4455 12.6555 38.9038 12.6018C39.161 12.6018 39.2852 12.7526 39.2852 13.0542C39.2782 13.9855 38.9667 14.8889 38.3982 15.6266C37.6663 16.6085 36.7035 17.3946 35.5951 17.9152C34.2118 18.5756 32.6923 18.9007 31.1599 18.8643C28.8751 18.9592 26.6269 18.2672 24.7909 16.9039C23.9572 16.2182 23.2982 15.3445 22.8679 14.3545C22.4377 13.3645 22.2486 12.2865 22.3161 11.2091C22.3278 10.3861 22.4199 9.56608 22.591 8.76089C22.9983 6.18871 24.3682 3.86753 26.4231 2.26772C28.5151 0.774247 31.0389 0.0077418 33.6081 0.0855956ZM32.1978 8.0155C32.5954 7.77345 32.9155 7.42267 33.1203 7.00456V6.97795C33.6292 6.07159 33.8865 5.0456 33.8654 4.00634C33.8476 3.34993 33.6614 3.02171 33.3065 3.02171C33.0641 3.02171 32.7684 3.22573 32.4195 3.63377C31.9833 4.19027 31.6335 4.80928 31.3817 5.46996C30.9962 6.40707 30.6992 7.37817 30.4946 8.37059C30.6212 8.38723 30.7494 8.38723 30.876 8.37059C31.3415 8.38078 31.8001 8.25756 32.1978 8.0155ZM22.6879 2.77312C22.8891 3.27777 22.9859 3.81801 22.9725 4.36115C22.9392 4.78059 22.8558 5.19452 22.7241 5.59413C22.5506 6.46012 22.08 7.23827 21.3935 7.794C20.7263 8.31542 19.8983 8.58827 19.0517 8.56573C18.3253 8.61599 17.6065 8.39118 17.0381 7.93594C16.5394 7.45338 16.1309 6.88562 15.8318 6.25941C15.7 5.94056 15.5238 5.64193 15.3084 5.37236C15.2423 5.28705 15.1576 5.21796 15.0608 5.17031C14.9639 5.12266 14.8575 5.0977 14.7496 5.09738C14.6339 5.09722 14.5195 5.12166 14.414 5.16907C14.3084 5.21647 14.2142 5.28577 14.1375 5.37236C13.9145 5.66458 13.7544 5.99984 13.6674 6.357L11.0062 15.0944C10.9483 15.2625 10.9242 15.4403 10.9353 15.6177C10.9279 15.8918 11.0192 16.1593 11.1925 16.3717C11.4043 16.5962 11.6461 16.7902 11.911 16.9483C12.1185 17.0709 12.3068 17.2233 12.4699 17.4007C12.5196 17.4638 12.5548 17.537 12.5732 17.6151C12.5916 17.6933 12.5927 17.7745 12.5763 17.8531C12.5532 17.997 12.4949 18.1329 12.4067 18.249C12.3186 18.365 12.2031 18.4575 12.0707 18.5184C11.5937 18.6905 11.0865 18.763 10.5805 18.7313H1.63019C1.17463 18.7704 0.718332 18.6649 0.326229 18.4297C0.198682 18.3493 0.100449 18.2299 0.0461173 18.0893C-0.00821407 17.9487 -0.0157504 17.7943 0.0246301 17.6491C0.166397 17.3182 0.430025 17.0546 0.760879 16.9128C1.09329 16.7448 1.39354 16.5196 1.64792 16.2475C1.93643 15.8899 2.13968 15.4713 2.24224 15.0234L5.35577 4.91999C5.4077 4.76275 5.43172 4.59762 5.42673 4.4321C5.44099 4.22176 5.38482 4.01267 5.26707 3.8378C5.11584 3.64741 4.94651 3.47214 4.76145 3.31444C4.57692 3.17531 4.41271 3.01108 4.27357 2.82655C4.23045 2.73814 4.20805 2.64109 4.20805 2.54272C4.20805 2.44435 4.23045 2.34727 4.27357 2.25886C4.4155 1.7355 5.14288 1.2565 6.47345 0.848461C7.82179 0.43757 9.22414 0.231252 10.6337 0.236399C11.4739 0.202126 12.3042 0.42827 13.011 0.883923C13.6409 1.31485 14.0796 1.97289 14.2351 2.72011C14.6926 1.95445 15.343 1.32218 16.1212 0.88636C16.8995 0.450544 17.7784 0.226439 18.6703 0.236399C19.2458 0.209945 19.8205 0.301765 20.3591 0.50621C20.8977 0.710654 21.3886 1.02338 21.8016 1.42503C22.1851 1.80986 22.4866 2.26846 22.6879 2.77312Z" fill="#FEFAFA"/>
</svg>
